<svg width="400" height="431" viewBox="0 0 400 431" fill="none" xmlns="http://www.w3.org/2000/svg">
<g clip-path="url(#clip0_94_1273)">
<path d="M195.47 243.7C194.137 244.034 192.822 244.434 191.53 244.9C160.4 258.48 129.15 271.81 98.21 285.81C85.41 291.61 72.72 293.81 58.93 290.66C37.02 285.66 43.42 290.87 33.69 270.83C23.22 249.28 13.01 227.59 2.63998 206C1.05998 202.72 -0.450023 199.47 2.81998 196.42C6.08998 193.37 9.17998 195.16 12.39 196.86C32.55 207.54 52.79 218.08 72.92 228.86C74.4451 229.8 76.1819 230.342 77.9711 230.437C79.7602 230.531 81.5444 230.175 83.16 229.4C104.46 220.4 125.9 211.62 147.28 202.77C148.63 202.21 149.93 201.5 152.09 200.46C150.09 199.09 148.78 198.03 147.33 197.13C129.75 186.29 112.163 175.463 94.57 164.65C93.44 163.95 92.25 163.32 91.19 162.51C86.71 159.1 87.19 153.62 92.38 151.41C102.38 147.2 112.38 143.15 122.55 139.41C124.64 138.64 127.49 139.18 129.78 139.84C161.43 149.03 193.03 158.41 224.71 167.51C227.527 168.23 230.497 168.055 233.21 167.01C260.95 155.67 288.73 144.41 316.21 132.47C337.66 123.15 359.05 122.47 380.92 130.22C383.43 131.11 385.92 131.93 388.5 132.76C395.2 134.98 398.78 139.15 399.09 145.12C399.38 150.76 396.27 155.58 390.16 158.27C371.41 166.52 352.61 174.65 333.83 182.82C314.44 191.26 295.02 199.63 275.72 208.26C273.594 209.406 271.927 211.249 271 213.48C253.71 254.57 236.65 295.76 219.29 336.82C217.807 340.07 215.445 342.841 212.47 344.82C203.99 350.4 195.22 355.56 186.31 360.45C184.04 361.7 180.5 362.29 178.19 361.45C174.67 360.15 175.19 356.39 175.74 353.16C182.08 318.387 188.403 283.667 194.71 249C195 247.4 195.17 245.81 195.47 243.7ZM189.94 344C199.65 338.44 208.05 334.21 212.39 323.16C227.84 283.81 244.6 244.97 260.74 205.88C261.407 204.106 262.439 202.492 263.769 201.142C265.099 199.791 266.697 198.735 268.46 198.04C306.193 181.693 343.893 165.26 381.56 148.74C383.27 147.99 384.9 147.03 387.88 145.49C383.03 143.84 379.61 142.75 376.24 141.49C358.4 135.07 340.91 135.33 323.24 142.8C280.13 161 236.88 178.77 193.64 196.7C186.82 199.53 183.83 199.07 182.1 194.94C180.44 190.94 182.39 188.23 189.01 185.43C195.87 182.53 202.75 179.69 210.43 176.49C208.77 175.8 208.08 175.43 207.34 175.21C181.007 167.417 154.673 159.65 128.34 151.91C126.922 151.455 125.4 151.435 123.97 151.85C118.85 153.73 113.84 155.85 107.97 158.29C110.11 159.72 111.55 160.76 113.06 161.69C131.22 172.85 149.45 183.91 167.49 195.27C169.56 196.58 171.89 199.65 171.73 201.73C171.57 203.81 168.85 206.62 166.61 207.57C138.72 219.41 110.69 230.92 82.76 242.66C78.83 244.31 75.57 243.94 71.89 241.96C56.79 233.83 41.57 225.91 26.38 217.96C24.92 217.19 23.38 216.59 20.65 215.37C30.42 235.85 39.5 254.93 48.65 273.97C49.1544 275.173 50.109 276.131 51.31 276.64C64.68 279.71 77.74 282.16 91.31 275.77C114.61 264.77 138.41 254.9 162.01 244.56C174.67 239.02 187.32 233.44 200.01 228.02C204.91 225.93 208.86 227.51 209.45 231.71C209.668 233.862 209.547 236.036 209.09 238.15C204.177 265.177 199.23 292.2 194.25 319.22C192.83 327.15 191.49 335.13 189.94 344Z" fill="#484847"/>
<path d="M330.53 312.67C324.832 312.617 319.2 311.442 313.956 309.212C308.712 306.982 303.959 303.742 299.967 299.675C295.976 295.608 292.824 290.795 290.693 285.51C288.561 280.226 287.492 274.573 287.545 268.875C287.598 263.177 288.773 257.545 291.003 252.301C293.233 247.057 296.473 242.304 300.54 238.312C304.607 234.321 309.42 231.169 314.704 229.038C319.989 226.906 325.642 225.837 331.34 225.89C355.23 226.05 374.46 245.81 374.24 269.97C374.074 281.418 369.383 292.336 361.193 300.337C353.003 308.338 341.979 312.772 330.53 312.67ZM331.59 238C323.254 237.839 315.193 240.982 309.165 246.743C303.138 252.504 299.635 260.415 299.42 268.75C298.93 285.48 313.18 300.32 330.01 300.62C347.27 300.93 361.89 286.94 362.21 269.82C362.52 252.94 348.58 238.45 331.59 238Z" fill="#019D97"/>
<path d="M354.88 55.78C349.38 55.78 343.88 55.85 338.39 55.78C333.39 55.71 330.96 53.55 331.17 49.54C331.4 45.09 334.1 43.69 338.25 43.74C347.91 43.85 357.57 43.74 367.25 43.74C368.42 43.74 369.8 44.1 370.7 43.6C372.053 42.646 373.291 41.5386 374.39 40.3C373.14 39.21 371.98 37.3 370.63 37.19C366.51 36.76 362.32 37.01 358.15 36.98C351.48 36.93 349.99 35.49 349.63 28.84C349.07 18.42 342.36 11.84 332.92 12.36C325.81 12.79 320.32 17.27 318.56 24.81C317.56 29.22 315.17 31.01 310.86 30.81C309.193 30.7275 307.523 30.7542 305.86 30.89C301.97 31.24 299.58 33.46 299.62 37.34C299.66 41.22 302.22 43.34 306.04 43.65C308.19 43.83 310.37 43.7 312.53 43.75C316 43.82 318.14 46.09 317.9 49.06C317.73 51.24 315.78 54.76 314.11 55.06C306.64 56.54 299.05 56.51 293.11 50.52C287.72 45.09 285.96 38.52 288.46 31.23C290.96 23.94 296.2 20 303.88 18.74C305.99 18.2967 307.843 17.0437 309.04 15.25C315.21 4.64003 325.4 -1.07997 336.74 0.170028C348.62 1.47003 357.81 9.37003 361.01 21.49C361.71 24.13 362.73 25.14 365.35 24.92C367.349 24.8136 369.351 24.8136 371.35 24.92C380.35 25.15 386.35 31.17 386.49 40.09C386.65 49.29 380.74 55.5 371.38 55.75C365.88 55.89 360.39 55.77 354.88 55.78Z" fill="#019D97"/>
<path d="M149.46 93C143.83 93 138.19 93 132.56 93C128.13 93 125.56 90.9 125.56 87C125.56 83.1 128.12 80.9101 132.46 80.9001C142.59 80.9001 152.73 80.9 162.86 80.84C165.22 80.84 168.46 81.61 168.53 77.84C168.6 73.84 165.22 74.42 162.66 74.35C158.54 74.24 154.42 74.3 150.3 74.25C146.75 74.25 144.73 72.3501 144.3 68.8701C143.99 66.5701 144.04 64.2 143.57 61.93C142.918 58.6333 141.2 55.6423 138.681 53.4179C136.162 51.1934 132.982 49.859 129.63 49.62C122.81 49.12 115.49 52.9601 114 59.5601C112.26 67.2601 108 68.85 101.06 68.39C96.3299 68.07 93.1899 71.39 94.4299 75.39C95.0999 77.55 97.6799 79.6701 99.8999 80.6201C102.12 81.5701 105.1 80.22 107.23 81.13C109.36 82.04 111.85 84.33 112.1 86.28C112.35 88.23 110.46 91.6901 108.68 92.4001C97.0799 97.0201 84.1299 89.2701 82.2599 77.0401C81.8687 74.6614 81.9622 72.2281 82.5348 69.8865C83.1075 67.5449 84.1475 65.3431 85.5924 63.4135C87.0373 61.4838 88.8573 59.8661 90.943 58.6575C93.0288 57.4488 95.3373 56.6742 97.7299 56.3801C100.62 56.0101 102.35 55.2401 103.84 52.4701C109.72 41.5201 119.18 36.64 131.51 37.67C137.032 38.1775 142.262 40.3777 146.486 43.97C150.71 47.5623 153.722 52.3714 155.11 57.7401C156.11 61.5201 157.9 62.27 161.3 62.28C164.779 62.1488 168.259 62.5261 171.63 63.4001C178.05 65.4001 181.8 72.5301 180.9 79.9001C180 87.2701 175.04 92.2901 167.9 92.9001C164.76 93.1701 161.58 93.03 158.42 93.06C155.42 93.06 152.42 93.06 149.42 93.06L149.46 93Z" fill="#019D97"/>
<path d="M339.88 269.35C342.77 273.35 348.68 276.26 343.98 282.14C341.36 285.41 338.81 284.65 330.82 278.59C326.82 280.79 323.36 288.11 317.68 282.03C312.45 276.44 319.01 273.42 321.83 269.39C319.62 265.39 312 262.24 317.91 256.39C323.44 250.96 326.86 257.58 330.74 260.22C334.95 257.45 338.4 250.83 343.87 256.58C349.02 262 342.75 265.29 339.88 269.35Z" fill="#019D97"/>
</g>
<path d="M65.6761 392.507V421.598H61.642L46.8551 400.263H46.5852V421.598H42.196V392.507H46.2585L61.0597 413.871H61.3295V392.507H65.6761ZM80.9283 422.039C78.8828 422.039 77.0978 421.57 75.5732 420.632C74.0485 419.695 72.8648 418.383 72.022 416.698C71.1792 415.012 70.7578 413.043 70.7578 410.789C70.7578 408.525 71.1792 406.546 72.022 404.851C72.8648 403.156 74.0485 401.84 75.5732 400.902C77.0978 399.965 78.8828 399.496 80.9283 399.496C82.9737 399.496 84.7588 399.965 86.2834 400.902C87.808 401.84 88.9917 403.156 89.8345 404.851C90.6773 406.546 91.0987 408.525 91.0987 410.789C91.0987 413.043 90.6773 415.012 89.8345 416.698C88.9917 418.383 87.808 419.695 86.2834 420.632C84.7588 421.57 82.9737 422.039 80.9283 422.039ZM80.9425 418.473C82.2682 418.473 83.3667 418.123 84.2379 417.422C85.1091 416.721 85.7531 415.789 86.1697 414.624C86.5959 413.459 86.8089 412.176 86.8089 410.775C86.8089 409.382 86.5959 408.104 86.1697 406.939C85.7531 405.765 85.1091 404.823 84.2379 404.113C83.3667 403.402 82.2682 403.047 80.9425 403.047C79.6072 403.047 78.4993 403.402 77.6186 404.113C76.7474 404.823 76.0987 405.765 75.6726 406.939C75.2559 408.104 75.0476 409.382 75.0476 410.775C75.0476 412.176 75.2559 413.459 75.6726 414.624C76.0987 415.789 76.7474 416.721 77.6186 417.422C78.4993 418.123 79.6072 418.473 80.9425 418.473ZM106.766 421.598V392.507H124.806V396.286H111.156V405.15H123.513V408.914H111.156V421.598H106.766ZM134.11 392.507V421.598H129.863V392.507H134.11ZM139.824 421.598V399.78H144.071V421.598H139.824ZM141.969 396.414C141.23 396.414 140.596 396.168 140.065 395.675C139.545 395.173 139.284 394.577 139.284 393.885C139.284 393.185 139.545 392.588 140.065 392.096C140.596 391.594 141.23 391.343 141.969 391.343C142.707 391.343 143.337 391.594 143.858 392.096C144.388 392.588 144.653 393.185 144.653 393.885C144.653 394.577 144.388 395.173 143.858 395.675C143.337 396.168 142.707 396.414 141.969 396.414ZM158.933 430.235C157.2 430.235 155.708 430.007 154.458 429.553C153.218 429.098 152.204 428.497 151.418 427.749C150.632 427.001 150.045 426.182 149.657 425.292L153.308 423.786C153.563 424.203 153.904 424.643 154.33 425.107C154.766 425.58 155.353 425.983 156.092 426.314C156.84 426.646 157.801 426.811 158.975 426.811C160.585 426.811 161.915 426.418 162.967 425.632C164.018 424.856 164.543 423.615 164.543 421.911V417.621H164.273C164.018 418.085 163.648 418.601 163.165 419.169C162.692 419.738 162.039 420.23 161.205 420.647C160.372 421.063 159.288 421.272 157.952 421.272C156.229 421.272 154.676 420.869 153.293 420.064C151.92 419.25 150.831 418.052 150.026 416.471C149.231 414.88 148.833 412.924 148.833 410.604C148.833 408.284 149.226 406.295 150.012 404.638C150.808 402.981 151.897 401.712 153.279 400.831C154.662 399.941 156.229 399.496 157.981 399.496C159.335 399.496 160.429 399.723 161.262 400.178C162.095 400.623 162.744 401.144 163.208 401.74C163.682 402.337 164.046 402.863 164.302 403.317H164.614V399.78H168.776V422.081C168.776 423.956 168.341 425.495 167.469 426.698C166.598 427.9 165.419 428.791 163.933 429.368C162.455 429.946 160.789 430.235 158.933 430.235ZM158.89 417.749C160.112 417.749 161.144 417.465 161.987 416.897C162.839 416.319 163.483 415.495 163.918 414.425C164.363 413.346 164.586 412.053 164.586 410.547C164.586 409.079 164.368 407.787 163.933 406.669C163.497 405.552 162.858 404.681 162.015 404.056C161.172 403.421 160.13 403.104 158.89 403.104C157.612 403.104 156.546 403.436 155.694 404.098C154.842 404.752 154.198 405.642 153.762 406.769C153.336 407.896 153.123 409.155 153.123 410.547C153.123 411.977 153.341 413.232 153.776 414.311C154.212 415.391 154.856 416.234 155.708 416.84C156.57 417.446 157.63 417.749 158.89 417.749ZM178.719 408.644V421.598H174.472V392.507H178.663V403.331H178.933C179.444 402.157 180.225 401.224 181.276 400.533C182.327 399.842 183.701 399.496 185.396 399.496C186.892 399.496 188.199 399.804 189.316 400.419C190.443 401.035 191.314 401.954 191.93 403.175C192.555 404.387 192.867 405.902 192.867 407.721V421.598H188.62V408.232C188.62 406.632 188.208 405.391 187.384 404.51C186.56 403.62 185.415 403.175 183.947 403.175C182.943 403.175 182.043 403.388 181.248 403.814C180.462 404.24 179.842 404.865 179.387 405.689C178.942 406.504 178.719 407.489 178.719 408.644ZM208.719 399.78V403.189H196.802V399.78H208.719ZM199.998 394.553H204.245V415.192C204.245 416.016 204.368 416.636 204.614 417.053C204.861 417.46 205.178 417.739 205.566 417.891C205.964 418.033 206.395 418.104 206.859 418.104C207.2 418.104 207.498 418.08 207.754 418.033C208.009 417.986 208.208 417.948 208.35 417.919L209.117 421.428C208.871 421.523 208.521 421.617 208.066 421.712C207.612 421.816 207.043 421.873 206.362 421.882C205.244 421.901 204.202 421.703 203.237 421.286C202.271 420.869 201.489 420.225 200.893 419.354C200.296 418.483 199.998 417.389 199.998 416.073V394.553ZM229.415 405.107L225.566 405.789C225.405 405.296 225.149 404.828 224.799 404.382C224.458 403.937 223.994 403.573 223.407 403.289C222.82 403.005 222.086 402.863 221.205 402.863C220.003 402.863 218.999 403.132 218.194 403.672C217.389 404.203 216.987 404.889 216.987 405.732C216.987 406.461 217.256 407.048 217.796 407.493C218.336 407.938 219.207 408.303 220.41 408.587L223.876 409.382C225.883 409.846 227.379 410.561 228.364 411.527C229.349 412.493 229.842 413.748 229.842 415.292C229.842 416.598 229.463 417.763 228.705 418.786C227.957 419.799 226.911 420.595 225.566 421.172C224.231 421.75 222.683 422.039 220.921 422.039C218.478 422.039 216.485 421.518 214.941 420.476C213.397 419.425 212.451 417.934 212.1 416.002L216.205 415.377C216.461 416.447 216.987 417.257 217.782 417.806C218.577 418.346 219.614 418.615 220.893 418.615C222.285 418.615 223.397 418.327 224.231 417.749C225.064 417.162 225.481 416.447 225.481 415.604C225.481 414.922 225.225 414.349 224.714 413.885C224.212 413.421 223.44 413.071 222.398 412.834L218.705 412.025C216.669 411.561 215.164 410.822 214.188 409.809C213.222 408.795 212.739 407.512 212.739 405.959C212.739 404.671 213.099 403.544 213.819 402.579C214.539 401.613 215.533 400.86 216.802 400.32C218.071 399.771 219.524 399.496 221.163 399.496C223.521 399.496 225.377 400.007 226.731 401.03C228.085 402.043 228.98 403.402 229.415 405.107ZM245.438 421.598V392.507H263.478V396.286H249.827V405.15H262.185V408.914H249.827V421.598H245.438ZM276.124 422.039C274.078 422.039 272.293 421.57 270.768 420.632C269.244 419.695 268.06 418.383 267.217 416.698C266.375 415.012 265.953 413.043 265.953 410.789C265.953 408.525 266.375 406.546 267.217 404.851C268.06 403.156 269.244 401.84 270.768 400.902C272.293 399.965 274.078 399.496 276.124 399.496C278.169 399.496 279.954 399.965 281.479 400.902C283.003 401.84 284.187 403.156 285.03 404.851C285.873 406.546 286.294 408.525 286.294 410.789C286.294 413.043 285.873 415.012 285.03 416.698C284.187 418.383 283.003 419.695 281.479 420.632C279.954 421.57 278.169 422.039 276.124 422.039ZM276.138 418.473C277.464 418.473 278.562 418.123 279.433 417.422C280.304 416.721 280.948 415.789 281.365 414.624C281.791 413.459 282.004 412.176 282.004 410.775C282.004 409.382 281.791 408.104 281.365 406.939C280.948 405.765 280.304 404.823 279.433 404.113C278.562 403.402 277.464 403.047 276.138 403.047C274.803 403.047 273.695 403.402 272.814 404.113C271.943 404.823 271.294 405.765 270.868 406.939C270.451 408.104 270.243 409.382 270.243 410.775C270.243 412.176 270.451 413.459 270.868 414.624C271.294 415.789 271.943 416.721 272.814 417.422C273.695 418.123 274.803 418.473 276.138 418.473ZM304.856 412.55V399.78H309.117V421.598H304.941V417.82H304.714C304.212 418.985 303.407 419.955 302.299 420.732C301.201 421.499 299.832 421.882 298.194 421.882C296.792 421.882 295.552 421.575 294.472 420.959C293.402 420.334 292.559 419.411 291.944 418.189C291.338 416.968 291.035 415.457 291.035 413.658V399.78H295.282V413.147C295.282 414.633 295.694 415.817 296.518 416.698C297.342 417.579 298.412 418.019 299.728 418.019C300.523 418.019 301.314 417.82 302.1 417.422C302.896 417.025 303.554 416.423 304.075 415.618C304.605 414.813 304.865 413.791 304.856 412.55ZM319.071 408.644V421.598H314.824V399.78H318.901V403.331H319.17C319.672 402.176 320.458 401.248 321.528 400.547C322.608 399.846 323.967 399.496 325.605 399.496C327.092 399.496 328.394 399.809 329.511 400.434C330.629 401.049 331.495 401.968 332.111 403.189C332.726 404.411 333.034 405.921 333.034 407.721V421.598H328.787V408.232C328.787 406.65 328.375 405.415 327.551 404.525C326.727 403.625 325.596 403.175 324.156 403.175C323.171 403.175 322.295 403.388 321.528 403.814C320.771 404.24 320.17 404.865 319.724 405.689C319.289 406.504 319.071 407.489 319.071 408.644ZM346.898 422.025C345.136 422.025 343.564 421.575 342.182 420.675C340.809 419.766 339.729 418.473 338.943 416.797C338.167 415.112 337.778 413.09 337.778 410.732C337.778 408.374 338.171 406.357 338.957 404.681C339.753 403.005 340.842 401.721 342.224 400.831C343.607 399.941 345.174 399.496 346.926 399.496C348.28 399.496 349.369 399.723 350.193 400.178C351.027 400.623 351.67 401.144 352.125 401.74C352.589 402.337 352.949 402.863 353.205 403.317H353.46V392.507H357.707V421.598H353.56V418.204H353.205C352.949 418.668 352.58 419.198 352.097 419.794C351.623 420.391 350.97 420.912 350.136 421.357C349.303 421.802 348.223 422.025 346.898 422.025ZM347.835 418.402C349.057 418.402 350.089 418.08 350.932 417.436C351.784 416.783 352.428 415.879 352.864 414.723C353.309 413.568 353.531 412.223 353.531 410.689C353.531 409.174 353.313 407.848 352.878 406.712C352.442 405.576 351.803 404.69 350.96 404.056C350.117 403.421 349.076 403.104 347.835 403.104C346.557 403.104 345.491 403.436 344.639 404.098C343.787 404.761 343.143 405.666 342.707 406.811C342.281 407.957 342.068 409.25 342.068 410.689C342.068 412.148 342.286 413.459 342.722 414.624C343.157 415.789 343.801 416.712 344.653 417.394C345.515 418.066 346.576 418.402 347.835 418.402Z" fill="#019D97"/>
<defs>
<clipPath id="clip0_94_1273">
<rect width="398.24" height="361.81" fill="white" transform="translate(0.880005)"/>
</clipPath>
</defs>
</svg>
