<svg width="20" height="20" viewBox="0 0 20 20" fill="none" xmlns="http://www.w3.org/2000/svg">
<path d="M16.0103 6.41082L16.0261 6.39415C16.2698 6.13732 16.5455 5.91284 16.8465 5.72638C17.5259 5.28238 17.9353 4.78531 18.1782 4.24651C18.4283 3.69208 18.5441 2.99892 18.4847 2.11538C18.4667 1.84606 18.4436 1.6636 18.4198 1.53954C18.3286 1.52916 18.1985 1.52074 18.0166 1.51982L16.0103 6.41082ZM16.0103 6.41082L15.995 6.42797M16.0103 6.41082L15.995 6.42797M15.995 6.42797C13.8797 8.79825 11.2713 9.5692 8.09616 9.0828L15.995 6.42797ZM2.01895 1.56228C2.01185 1.56368 1.98855 1.56848 1.94914 1.58183C1.88339 1.60412 1.80571 1.63923 1.73066 1.68361C1.68305 1.71177 1.64613 1.73795 1.61986 1.75873C1.45698 2.23669 1.45189 2.86552 1.65523 3.53903C1.87305 4.26046 2.29214 4.90025 2.78904 5.30558C4.28468 6.52444 5.76393 7.7217 7.28166 8.85278C7.36205 8.91262 7.60092 9.00658 8.09538 9.08268L2.01895 1.56228ZM2.01895 1.56228C4.00006 1.48546 5.97307 1.49663 7.98458 1.50802C8.71424 1.51216 9.44897 1.51632 10.191 1.51632C10.9681 1.51632 11.7437 1.51549 12.5184 1.51467C14.3538 1.51271 16.1838 1.51076 18.0165 1.51982L2.01895 1.56228Z" fill="#484847" stroke="#FCFCFC" stroke-width="3"/>
<path d="M7.3091 12.3017H12.8042C12.8042 13.6571 12.8373 14.9827 12.7804 16.3052C12.767 16.6186 12.5218 17.0094 12.2644 17.2101C11.1361 18.0802 9.98575 18.927 8.79994 19.715C7.91217 20.3024 7.33989 19.9685 7.31956 18.8401C7.28237 16.7131 7.3091 14.5848 7.3091 12.3017Z" fill="#019D97"/>
</svg>
