<svg width="40" height="41" viewBox="0 0 40 41" fill="none" xmlns="http://www.w3.org/2000/svg">
<path d="M0 0.73584H40V20.7358C40 31.7815 31.0457 40.7358 20 40.7358H0V0.73584Z" fill="#484847"/>
<path d="M26.0103 17.1466L26.0261 17.1299C26.2698 16.8731 26.5455 16.6486 26.8465 16.4622C27.5259 16.0182 27.9353 15.5211 28.1782 14.9823C28.4283 14.4279 28.5441 13.7347 28.4847 12.8512C28.4667 12.5819 28.4436 12.3994 28.4198 12.2753C28.3286 12.265 28.1985 12.2565 28.0166 12.2556L26.0103 17.1466ZM26.0103 17.1466L25.995 17.1638M26.0103 17.1466L25.995 17.1638M25.995 17.1638C23.8797 19.5341 21.2713 20.305 18.0962 19.8186L25.995 17.1638ZM12.0189 12.2981C12.0118 12.2995 11.9885 12.3043 11.9491 12.3176C11.8834 12.3399 11.8057 12.375 11.7307 12.4194C11.683 12.4476 11.6461 12.4737 11.6199 12.4945C11.457 12.9725 11.4519 13.6013 11.6552 14.2748C11.8731 14.9963 12.2921 15.636 12.789 16.0414C14.2847 17.2602 15.7639 18.4575 17.2817 19.5886C17.3621 19.6484 17.6009 19.7424 18.0954 19.8185L12.0189 12.2981ZM12.0189 12.2981C14.0001 12.2213 15.9731 12.2324 17.9846 12.2438C18.7142 12.248 19.449 12.2521 20.191 12.2521C20.9681 12.2521 21.7437 12.2513 22.5184 12.2505C24.3538 12.2485 26.1838 12.2466 28.0165 12.2556L12.0189 12.2981Z" fill="#484847" stroke="#FCFCFC" stroke-width="3"/>
<path d="M17.3091 23.0375H22.8042C22.8042 24.3929 22.8373 25.7185 22.7804 27.041C22.767 27.3544 22.5218 27.7452 22.2644 27.9459C21.1361 28.816 19.9858 29.6628 18.7999 30.4508C17.9122 31.0382 17.3399 30.7043 17.3196 29.5759C17.2824 27.4489 17.3091 25.3206 17.3091 23.0375Z" fill="#019D97"/>
</svg>
