<svg width="444" height="73" viewBox="0 0 444 73" fill="none" xmlns="http://www.w3.org/2000/svg">
<g clip-path="url(#clip0_85_385)">
<path d="M0.0151367 19.5859C0.0151367 16.7359 0.0951367 13.9459 0.105137 11.1359C0.105137 10.3059 0.105137 9.60589 1.26514 9.62589C10.2651 9.82589 19.2651 9.22589 28.2651 10.0459C31.5307 10.4206 34.7281 11.2486 37.7651 12.5059C39.8211 13.8636 41.7107 15.4578 43.3951 17.2559C44.6283 19.0273 45.636 20.9454 46.3951 22.9659L47.5451 27.6159L47.6151 28.5259V33.6959C46.5551 40.3259 43.6151 45.6959 37.3551 48.7559C35.9251 49.4559 36.9651 50.1959 37.3051 50.8059C40.9251 57.3059 44.5451 63.8059 48.3051 70.2459C49.1951 71.7859 49.2251 72.3059 47.2051 72.2459C43.0551 72.1259 38.8951 72.1659 34.7451 72.2459C34.1776 72.3245 33.5999 72.2157 33.0999 71.9359C32.5999 71.6561 32.205 71.2207 31.9751 70.6959C27.2285 61.8359 22.4351 53.0126 17.5951 44.2259C16.5351 42.3159 17.0151 41.8759 19.0151 41.9559C21.2887 42.0825 23.5689 41.9042 25.7951 41.4259C29.6151 40.5259 31.8651 37.8459 32.1951 33.7459C32.5451 29.3659 30.7151 26.1459 27.0851 24.6259C23.8451 23.2659 20.4451 23.7559 17.0851 23.7059C15.6251 23.7059 16.1551 24.9059 16.1551 25.6359C16.1551 31.7459 16.1551 37.8559 16.1551 43.9659C16.1551 52.5859 16.0951 61.2059 16.2151 69.8259C16.2151 71.8259 15.6151 72.3259 13.7051 72.2559C9.70514 72.1159 5.70514 72.1759 1.70514 72.2559C0.495137 72.2459 0.0151367 71.8959 0.0851367 70.6359C0.155137 68.5259 0.0851367 66.4059 0.0151367 64.2959V39.8259C0.0151367 37.9392 0.0151367 36.0559 0.0151367 34.1759V19.5859Z" fill="#484847"/>
<path d="M218.505 23.8958L222.745 23.5358L224.155 23.5958L227.475 23.9158L227.625 24.0658H227.835C230.336 24.6875 232.754 25.6075 235.035 26.8058C235.035 21.5258 235.105 16.6058 235.035 11.6858C235.035 9.9858 235.565 9.5658 237.165 9.6258C240.535 9.7358 243.905 9.7158 247.275 9.6258C248.635 9.6258 249.195 9.8858 249.195 11.4158C249.142 31.0891 249.142 50.7558 249.195 70.4158C249.195 71.9458 248.665 72.2558 247.295 72.2158C244.165 72.1258 241.015 72.0558 237.895 72.2158C235.755 72.3358 234.535 71.9158 235.095 69.5458C234.385 69.0758 233.965 69.5958 233.515 69.7958C220.685 75.5758 206.335 70.2558 200.735 57.6158C195.235 45.2158 201.045 30.8958 213.815 25.3858C214.165 25.2358 214.515 25.0458 214.815 24.8758C215.481 24.8892 216.129 24.658 216.635 24.2258L218.135 23.9858H218.355L218.505 23.8958ZM233.175 47.9858C233.185 45.9622 232.593 43.9814 231.475 42.2947C230.357 40.608 228.763 39.2916 226.896 38.5127C225.028 37.7337 222.971 37.5273 220.986 37.9197C219 38.312 217.177 39.2855 215.746 40.7164C214.315 42.1473 213.341 43.9711 212.949 45.9563C212.557 47.9415 212.763 49.9985 213.542 51.8662C214.321 53.7338 215.637 55.3279 217.324 56.446C219.011 57.564 220.992 58.1557 223.015 58.1458C225.705 58.1301 228.28 57.0546 230.182 55.1526C232.084 53.2506 233.159 50.6755 233.175 47.9858Z" fill="#484847"/>
<path d="M254.905 72.2359C254.845 70.2359 254.745 68.1759 254.745 66.1359C254.745 48.0259 254.745 29.9159 254.745 11.8059C254.745 10.0259 255.215 9.54587 256.955 9.59587C266.195 9.90587 275.455 9.05587 284.675 10.1759C293.135 11.1759 298.525 15.9859 301.005 24.0159C304.005 33.7859 300.195 44.6559 292.235 49.4359C288.555 51.6459 284.485 52.3159 280.305 52.5059C277.725 52.6159 275.125 52.6259 272.545 52.5059C271.155 52.4559 270.835 52.9659 270.845 54.2559C270.905 59.5859 270.845 64.9159 270.905 70.2559C270.905 71.8659 270.385 72.2559 268.905 72.2559C264.985 72.2059 261.075 72.2559 257.155 72.3359L254.905 72.2359ZM270.835 31.0059C270.835 33.0059 270.835 35.0759 270.835 37.1159C270.835 37.8859 270.835 38.5459 271.905 38.5059C275.105 38.3959 278.345 38.8459 281.495 38.0059C284.865 37.1059 286.585 34.7259 286.615 31.0059C286.734 29.4604 286.295 27.9235 285.378 26.674C284.46 25.4246 283.125 24.5453 281.615 24.1959C279.779 23.7831 277.894 23.6282 276.015 23.7359C270.815 23.6259 270.815 23.6259 270.805 28.7359C270.825 29.4625 270.835 30.2192 270.835 31.0059Z" fill="#484847"/>
<path d="M422.495 35.2158L424.575 39.3758C425.98 43.7387 426.322 48.3738 425.575 52.8958L423.745 53.3358C421.419 53.0775 419.071 53.0775 416.745 53.3358C412.823 53.0793 408.888 53.0793 404.965 53.3358C402.776 53.0764 400.564 53.0764 398.375 53.3358C397.609 53.1047 396.791 53.1047 396.025 53.3358C395.105 53.0833 394.131 53.1076 393.225 53.4058C393.831 54.6213 394.808 55.6124 396.015 56.2358C397.155 57.2121 398.538 57.8608 400.017 58.1126C401.497 58.3645 403.017 58.21 404.415 57.6658C406.865 56.6658 409.285 56.7458 411.775 56.6658L417.175 56.5658H422.815C424.315 56.5658 424.135 57.2558 423.665 58.2958C419.475 67.6058 408.575 73.4958 398.335 71.9358C394.36 71.3842 390.584 69.8564 387.343 67.4888C384.103 65.1212 381.5 61.9877 379.766 58.3682C378.033 54.7488 377.223 50.7563 377.41 46.7475C377.596 42.7388 378.773 38.8386 380.835 35.3958C381.065 34.9958 381.265 34.5658 381.475 34.1558L385.655 29.4658L388.895 27.0558L392.685 25.1758C395.143 24.4045 397.667 23.8654 400.225 23.5658H403.515L407.285 24.0858L409.805 24.8258C413.89 26.4255 417.539 28.9679 420.455 32.2458L420.855 32.7158L422.285 34.7158L422.495 35.2158ZM410.385 42.5458C407.925 39.2258 405.055 37.6258 401.385 37.7358C397.925 37.8358 395.225 39.4158 393.035 42.5458H410.385Z" fill="#484847"/>
<path d="M344.365 26.4059L345.845 28.1259L348.345 31.1259C348.942 32.1172 349.702 32.9998 350.595 33.7359C351.005 34.2959 351.455 34.8159 351.815 35.4059C352.765 36.9459 353.525 36.6259 354.485 35.3459C356.005 33.3459 357.655 31.3459 359.255 29.4059C360.335 28.7959 360.675 27.6059 361.355 26.6959C363.285 24.1459 365.715 22.9659 368.945 23.5759C369.486 23.602 370.027 23.555 370.555 23.4359C372.747 23.6961 374.963 23.6961 377.155 23.4359C378.077 23.67 379.043 23.67 379.965 23.4359L382.435 23.7359L382.315 24.2359L381.135 25.5559L379.085 28.0259L378.475 28.7859C373.365 34.7859 368.285 40.8959 363.125 46.8859C362.075 48.1059 362.955 48.6859 363.575 49.4259C369.515 56.5459 375.465 63.6492 381.425 70.7359L382.645 72.2159H374.895C371.995 72.2159 369.085 72.1459 366.195 72.2159C365.582 72.2677 364.966 72.1584 364.408 71.8988C363.85 71.6392 363.37 71.2383 363.015 70.7359C360.155 67.2059 357.125 63.7959 354.295 60.2459C353.295 58.9959 352.815 59.1459 351.895 60.2459C349.015 63.8559 346.015 67.3659 343.015 70.8959C342.525 71.4759 342.135 72.2059 341.185 72.2059C335.495 72.2059 329.805 72.2059 323.705 72.2059L327.275 67.5159C329.153 65.6171 330.875 63.5705 332.425 61.3959L336.955 56.0759L337.885 54.9959L340.535 51.8259C344.625 47.0159 344.745 49.0159 340.465 44.0359L336.885 39.7359L335.595 38.1659L334.505 36.9359L333.785 36.0759C333.393 35.2905 332.825 34.6061 332.125 34.0759C330.043 31.2774 327.796 28.6059 325.395 26.0759C325.395 25.0759 323.395 24.8459 324.395 23.4659C326.744 23.7436 329.117 23.7436 331.465 23.4659C332.23 23.7049 333.05 23.7049 333.815 23.4659C336.004 23.7296 338.216 23.7296 340.405 23.4659L342.265 23.8559L342.645 24.3159L344.335 26.3759L344.365 26.4059Z" fill="#484847"/>
<path d="M189.275 27.2459C193.415 31.2459 194.845 36.4259 194.905 41.9759C195.005 51.4659 194.905 60.9759 195.005 70.4359C195.005 72.5359 193.765 72.1359 192.625 72.3059H186.015C184.275 71.9159 182.435 72.6059 180.725 71.8559V67.5959C180.924 66.815 180.924 65.9968 180.725 65.2159C180.912 62.8863 180.912 60.5454 180.725 58.2159C180.926 57.2765 180.926 56.3053 180.725 55.3659C180.912 53.0363 180.912 50.6954 180.725 48.3659C180.725 47.5059 180.825 46.6459 180.785 45.7959C180.535 40.3359 178.135 37.7959 173.355 37.7959C168.355 37.7959 165.515 40.5159 165.355 45.9359C165.195 52.6759 165.355 59.4159 165.255 66.1559C165.255 68.1559 166.185 70.8059 164.785 71.9459C163.585 72.9459 161.045 72.2559 159.095 72.2859C157.145 72.3159 155.165 72.1859 153.215 72.2859C151.515 72.4159 151.215 71.7859 151.215 70.1759C151.265 54.7359 151.215 39.2959 151.215 23.8559L155.925 23.5159C156.69 23.7549 157.51 23.7549 158.275 23.5159C159.574 23.6492 160.88 23.6926 162.185 23.6459C163.855 23.4859 164.645 24.0059 164.455 25.7359V29.7359C170.525 22.2259 178.125 22.8359 186.065 25.1959L189.275 27.2459Z" fill="#484847"/>
<path d="M145.715 45.9359V47.8359C145.715 50.6559 145.715 53.4725 145.715 56.2859V67.1359V71.8659C141.605 72.6059 137.465 72.0359 133.345 72.1759C132.445 72.1759 132.425 71.5259 132.435 70.8659C132.435 69.4059 132.435 67.9459 132.435 65.8659C127.555 72.2659 121.335 72.9859 114.625 71.7459C112.051 71.3393 109.639 70.2309 107.655 68.5425C105.67 66.8542 104.189 64.6512 103.375 62.1759C102.349 59.2885 101.851 56.2398 101.905 53.1759C101.905 44.0092 101.905 34.8459 101.905 25.6859C101.905 24.6859 101.725 23.5759 103.245 23.5159C105.434 23.7721 107.646 23.7721 109.835 23.5159C111.221 23.6425 112.614 23.6826 114.005 23.6359C115.715 23.4859 116.065 24.1759 116.005 25.7459C115.915 29.0859 116.005 32.4259 116.005 35.7459C115.986 35.7609 115.971 35.7799 115.961 35.8015C115.95 35.8232 115.945 35.8469 115.945 35.8709C115.945 35.8949 115.95 35.9186 115.961 35.9402C115.971 35.9619 115.986 35.9809 116.005 35.9959L116.015 49.7359C115.863 51.7257 116.377 53.7097 117.475 55.3759C119.475 57.9859 122.635 58.8459 126.295 57.7659C129.375 56.8559 130.965 54.5659 131.245 50.6759C131.625 41.7359 131.325 32.7859 131.395 23.8459L137.535 23.5159C138.3 23.7556 139.12 23.7556 139.885 23.5159L145.565 23.8459L145.685 28.5759C145.685 31.0759 145.685 33.5792 145.685 36.0859V37.9859C145.507 40.6332 145.517 43.2899 145.715 45.9359Z" fill="#484847"/>
<path d="M64.605 25.2659C70.6638 23.0696 77.3121 23.1371 83.325 25.4559L87.075 27.4559C90.9033 29.9263 93.9617 33.4211 95.9025 37.5432C97.8433 41.6653 98.5887 46.2492 98.0539 50.7738C97.5192 55.2984 95.7257 59.5823 92.8774 63.1383C90.0291 66.6944 86.2403 69.38 81.9416 70.8899C77.643 72.3997 73.0069 72.6733 68.5605 71.6794C64.1141 70.6855 60.0357 68.4641 56.789 65.2677C53.5423 62.0712 51.2575 58.028 50.1944 53.5977C49.1313 49.1673 49.3324 44.5276 50.775 40.2059C51.025 39.4659 51.225 38.7159 51.455 37.9659C52.7304 35.6783 54.1744 33.4889 55.775 31.4159L60.285 27.5759L64.605 25.2659ZM84.015 47.8659C83.9969 45.8464 83.379 43.8779 82.2399 42.2102C81.1008 40.5426 79.4919 39.251 77.6174 38.4995C75.7429 37.7479 73.6873 37.5704 71.7117 37.9893C69.736 38.4082 67.9294 39.4048 66.5212 40.8524C65.1131 42.3 64.1668 44.1334 63.8025 46.1199C63.4383 48.1063 63.6726 50.1562 64.4755 52.0092C65.2785 53.8623 66.614 55.435 68.3125 56.5276C70.011 57.6202 71.9958 58.1835 74.015 58.1459C76.7019 58.1011 79.2618 56.9948 81.1355 55.0686C83.0092 53.1424 84.0445 50.5529 84.015 47.8659Z" fill="#484847"/>
<path d="M429.595 67.6059C429.821 66.8287 429.821 66.0031 429.595 65.2259C429.817 62.7275 429.817 60.2143 429.595 57.7159C429.815 57.0982 429.815 56.4236 429.595 55.8059C429.818 53.3109 429.818 50.8009 429.595 48.3059C429.82 47.5217 429.82 46.6901 429.595 45.9059C429.817 43.4108 429.817 40.901 429.595 38.4059C429.825 37.6292 429.825 36.8026 429.595 36.0259C429.814 33.5274 429.814 31.0144 429.595 28.5159C429.823 27.7389 429.823 26.9129 429.595 26.1359C429.818 23.6375 429.818 21.1243 429.595 18.6259C429.821 17.8487 429.821 17.0231 429.595 16.2459L429.785 9.7359L431.635 9.5459H432.785C435.785 9.5459 438.785 9.7459 441.715 9.6159C443.555 9.5359 443.895 10.1859 443.895 11.8859C443.835 29.5359 443.895 47.1759 443.895 64.8259C443.895 65.7659 443.975 66.6959 444.025 67.6359C444.025 68.7259 443.925 69.8259 443.905 70.9159C443.905 71.5859 443.905 72.2659 442.985 72.2259C438.545 72.0259 434.085 72.7259 429.665 71.8559L429.595 67.6059Z" fill="#484847"/>
<path d="M319.855 26.1658V28.9958C319.855 31.1892 319.855 33.3825 319.855 35.5758V40.7358C319.855 42.1492 319.855 43.5592 319.855 44.9658C319.855 46.0658 319.855 47.1658 319.855 48.2658C319.855 50.6192 319.855 52.9692 319.855 55.3158C319.855 60.2458 319.725 65.1658 319.795 70.0958C319.795 71.7058 319.415 72.2758 317.735 72.2058C314.295 72.0758 310.855 72.1058 307.405 72.2058C306.085 72.2058 305.665 71.8258 305.665 70.4758C305.705 55.3758 305.705 40.2758 305.665 25.1758C305.665 24.4558 305.665 23.7558 306.495 23.4658C308.53 23.7221 310.59 23.7221 312.625 23.4658C313.391 23.7011 314.209 23.7011 314.975 23.4658C315.662 23.5848 316.359 23.6317 317.055 23.6058C319.085 23.3558 320.175 23.9658 319.855 26.1658Z" fill="#484847"/>
<path d="M311.375 18.4158C303.885 15.9458 301.815 10.1658 306.095 3.67584C307.884 1.97888 310.198 0.941932 312.655 0.73584L314.015 0.73584C315.53 1.09182 316.945 1.78343 318.157 2.75961C319.368 3.73579 320.345 4.97161 321.015 6.37584C322.805 12.2458 319.305 17.9958 312.585 18.5258L311.375 18.4158Z" fill="#019D97"/>
</g>
<defs>
<clipPath id="clip0_85_385">
<rect width="443.97" height="71.66" fill="white" transform="translate(0.0151367 0.73584)"/>
</clipPath>
</defs>
</svg>
