<svg width="160" height="26" viewBox="0 0 160 26" fill="none" xmlns="http://www.w3.org/2000/svg">
<path d="M0 6.8642C0 5.83719 0.0288282 4.83181 0.0324317 3.81922C0.0324317 3.52013 0.0324317 3.26788 0.45044 3.27509C3.69361 3.34716 6.93678 3.13095 10.18 3.42644C11.3567 3.56147 12.5089 3.85983 13.6033 4.3129C14.3442 4.80216 15.0251 5.37664 15.6321 6.02458C16.0764 6.66292 16.4396 7.3541 16.7131 8.08219L17.1275 9.75783L17.1528 10.0857V11.9488C16.7708 14.3379 15.7114 16.273 13.4556 17.3757C12.9402 17.6279 13.315 17.8946 13.4375 18.1144C14.742 20.4567 16.0465 22.799 17.4014 25.1196C17.7221 25.6746 17.7329 25.862 17.005 25.8403C15.5096 25.7971 14.0105 25.8115 12.515 25.8403C12.3105 25.8687 12.1024 25.8295 11.9222 25.7286C11.742 25.6278 11.5997 25.4709 11.5169 25.2818C9.80638 22.0891 8.0791 18.9096 6.33499 15.7433C5.95302 15.055 6.12599 14.8964 6.84669 14.9253C7.66596 14.9709 8.48765 14.9067 9.28988 14.7343C10.6664 14.41 11.4772 13.4442 11.5961 11.9668C11.7223 10.3884 11.0628 9.22811 9.75473 8.68037C8.58719 8.19029 7.362 8.36687 6.15121 8.34885C5.6251 8.34885 5.81608 8.78127 5.81608 9.04433C5.81608 11.2461 5.81608 13.4478 5.81608 15.6496C5.81608 18.7558 5.79446 21.8621 5.83771 24.9683C5.83771 25.689 5.62149 25.8692 4.93322 25.8439C3.49181 25.7935 2.0504 25.8151 0.608995 25.8439C0.172969 25.8403 0 25.7142 0.0252247 25.2602C0.0504493 24.4998 0.0252247 23.7359 0 22.9755V14.1577C0 13.4779 0 12.7992 0 12.1217V6.8642Z" fill="#FCFCFC"/>
<path d="M78.7334 8.41732L80.2612 8.28759L80.7693 8.30921L81.9657 8.42453L82.0198 8.47858H82.0954C82.9967 8.70262 83.8678 9.03412 84.69 9.46594C84.69 7.56328 84.7152 5.79035 84.69 4.01742C84.69 3.40482 84.881 3.25347 85.4575 3.27509C86.6719 3.31473 87.8863 3.30753 89.1007 3.27509C89.5908 3.27509 89.7926 3.36879 89.7926 3.92012C89.7733 11.0095 89.7733 18.0964 89.7926 25.1809C89.7926 25.7322 89.6016 25.844 89.1079 25.8295C87.98 25.7971 86.8449 25.7719 85.7206 25.8295C84.9494 25.8728 84.5098 25.7214 84.7116 24.8674C84.4558 24.698 84.3044 24.8854 84.1422 24.9575C79.5189 27.0403 74.3479 25.1232 72.3299 20.5684C70.348 16.1 72.4416 10.9398 77.0433 8.95424C77.1694 8.90019 77.2956 8.83172 77.4037 8.77046C77.6436 8.7753 77.8769 8.69196 78.0595 8.53624L78.6 8.44975H78.6793L78.7334 8.41732ZM84.0197 17.0982C84.0233 16.369 83.8101 15.6552 83.4072 15.0474C83.0043 14.4396 82.4299 13.9652 81.7568 13.6845C81.0838 13.4038 80.3426 13.3295 79.6272 13.4709C78.9118 13.6122 78.2546 13.963 77.739 14.4786C77.2234 14.9943 76.8726 15.6515 76.7312 16.3669C76.5898 17.0822 76.6642 17.8235 76.9449 18.4965C77.2256 19.1695 77.7 19.7439 78.3077 20.1468C78.9155 20.5497 79.6293 20.7629 80.3585 20.7594C81.3278 20.7537 82.2557 20.3662 82.9411 19.6808C83.6265 18.9954 84.0141 18.0675 84.0197 17.0982Z" fill="#FCFCFC"/>
<path d="M91.8501 25.8368C91.8285 25.1161 91.7925 24.3737 91.7925 23.6386C91.7925 17.1127 91.7925 10.5867 91.7925 4.06069C91.7925 3.41927 91.9618 3.2463 92.5889 3.26431C95.9185 3.37602 99.2554 3.06972 102.578 3.47332C105.626 3.83367 107.569 5.56697 108.462 8.46059C109.543 11.9812 108.17 15.8983 105.302 17.6207C103.976 18.4171 102.509 18.6586 101.003 18.727C100.073 18.7667 99.1365 18.7703 98.2068 18.727C97.7059 18.709 97.5905 18.8928 97.5941 19.3576C97.6158 21.2783 97.5942 23.199 97.6158 25.1233C97.6158 25.7034 97.4284 25.844 96.8951 25.844C95.4825 25.826 94.0735 25.844 92.6609 25.8728L91.8501 25.8368ZM97.5906 10.9795C97.5906 11.7002 97.5906 12.4461 97.5906 13.1812C97.5906 13.4587 97.5906 13.6965 97.9761 13.6821C99.1293 13.6425 100.297 13.8046 101.432 13.5019C102.646 13.1776 103.266 12.32 103.277 10.9795C103.32 10.4225 103.162 9.8687 102.831 9.41846C102.5 8.96822 102.019 8.65139 101.475 8.52546C100.813 8.37669 100.134 8.3209 99.4572 8.35969C97.5833 8.32006 97.5833 8.32006 97.5797 10.1615C97.5869 10.4233 97.5906 10.696 97.5906 10.9795Z" fill="#FCFCFC"/>
<path d="M152.242 12.4965L152.991 13.9956C153.497 15.5677 153.621 17.238 153.352 18.8675L152.692 19.0261C151.854 18.933 151.008 18.933 150.17 19.0261C148.756 18.9337 147.338 18.9337 145.925 19.0261C145.136 18.9326 144.339 18.9326 143.55 19.0261C143.274 18.9428 142.979 18.9428 142.703 19.0261C142.372 18.9351 142.021 18.9439 141.694 19.0513C141.913 19.4893 142.265 19.8465 142.7 20.0711C143.11 20.4229 143.609 20.6567 144.142 20.7474C144.675 20.8382 145.223 20.7825 145.726 20.5864C146.609 20.2261 147.481 20.2549 148.379 20.2261L150.325 20.19H152.357C152.897 20.19 152.833 20.4387 152.663 20.8134C151.153 24.1683 147.226 26.2908 143.536 25.7286C142.103 25.5299 140.742 24.9793 139.575 24.1261C138.407 23.273 137.469 22.1438 136.844 20.8395C136.22 19.5353 135.928 18.0966 135.995 16.652C136.062 15.2074 136.486 13.802 137.229 12.5614C137.312 12.4172 137.384 12.2623 137.46 12.1145L138.966 10.4245L140.134 9.55603L141.5 8.87857C142.385 8.60061 143.295 8.40637 144.217 8.2984H145.402L146.761 8.48578L147.669 8.75244C149.141 9.32889 150.456 10.2451 151.507 11.4263L151.651 11.5956L152.166 12.3163L152.242 12.4965ZM147.878 15.1379C146.991 13.9415 145.957 13.365 144.635 13.4046C143.388 13.4406 142.415 14.01 141.626 15.1379H147.878Z" fill="#FCFCFC"/>
<path d="M124.087 9.32181L124.621 9.94161L125.522 11.0227C125.736 11.3799 126.011 11.6979 126.332 11.9632C126.48 12.165 126.642 12.3524 126.772 12.565C127.114 13.1199 127.388 13.0046 127.734 12.5434C128.282 11.8227 128.876 11.1019 129.453 10.4029C129.842 10.183 129.965 9.75423 130.21 9.42631C130.905 8.50741 131.781 8.0822 132.945 8.30201C133.14 8.31143 133.335 8.29446 133.525 8.25156C134.315 8.34532 135.113 8.34532 135.903 8.25156C136.236 8.33591 136.584 8.33591 136.916 8.25156L137.806 8.35967L137.763 8.53984L137.337 9.01551L136.599 9.90558L136.379 10.1794C134.538 12.3416 132.707 14.5433 130.848 16.7018C130.469 17.1415 130.786 17.3505 131.01 17.6171C133.15 20.1828 135.294 22.7425 137.442 25.2962L137.882 25.8295H135.089C134.044 25.8295 132.995 25.8043 131.954 25.8295C131.733 25.8482 131.511 25.8088 131.31 25.7153C131.109 25.6217 130.936 25.4773 130.808 25.2962C129.777 24.0242 128.685 22.7954 127.666 21.5161C127.305 21.0657 127.132 21.1197 126.801 21.5161C125.763 22.817 124.682 24.0818 123.601 25.3539C123.424 25.5629 123.284 25.8259 122.941 25.8259C120.891 25.8259 118.841 25.8259 116.642 25.8259L117.929 24.1359C118.606 23.4517 119.226 22.7142 119.785 21.9305L121.417 20.0135L121.752 19.6243L122.707 18.482C124.181 16.7487 124.224 17.4694 122.682 15.6748L121.392 14.1253L120.927 13.5595L120.534 13.1163L120.275 12.8064C120.133 12.5234 119.929 12.2768 119.677 12.0857C118.926 11.0773 118.117 10.1146 117.251 9.20289C117.251 8.84254 116.531 8.75966 116.891 8.26237C117.737 8.36245 118.593 8.36245 119.439 8.26237C119.714 8.34851 120.01 8.34851 120.286 8.26237C121.074 8.35738 121.872 8.35738 122.66 8.26237L123.331 8.40291L123.468 8.56867L124.077 9.311L124.087 9.32181Z" fill="#FCFCFC"/>
<path d="M68.2002 9.62457C69.6921 11.066 70.2074 12.9326 70.229 14.9326C70.2651 18.3523 70.229 21.7792 70.2651 25.1882C70.2651 25.9449 69.8182 25.8008 69.4074 25.862H67.0255C66.3985 25.7215 65.7354 25.9701 65.1192 25.6999V24.1648C65.1908 23.8834 65.1908 23.5885 65.1192 23.3071C65.1867 22.4677 65.1867 21.6241 65.1192 20.7847C65.1916 20.4462 65.1916 20.0962 65.1192 19.7577C65.1867 18.9182 65.1867 18.0747 65.1192 17.2352C65.1192 16.9253 65.1553 16.6154 65.1408 16.3091C65.0508 14.3416 64.1859 13.4263 62.4634 13.4263C60.6617 13.4263 59.6383 14.4064 59.5806 16.3596C59.523 18.7883 59.5806 21.2171 59.5446 23.6459C59.5446 24.3666 59.8797 25.3215 59.3752 25.7323C58.9428 26.0927 58.0275 25.844 57.3248 25.8548C56.6221 25.8656 55.9086 25.8188 55.2059 25.8548C54.5933 25.9017 54.4852 25.6747 54.4852 25.0945C54.5032 19.5307 54.4852 13.9668 54.4852 8.40298L56.1825 8.28046C56.4582 8.3666 56.7536 8.3666 57.0293 8.28046C57.4973 8.32849 57.9681 8.34414 58.4383 8.3273C59.0401 8.26965 59.3248 8.45703 59.2563 9.08044V10.5218C61.4436 7.8156 64.1823 8.03542 67.0435 8.88585L68.2002 9.62457Z" fill="#FCFCFC"/>
<path d="M52.5033 16.3596V17.0442C52.5033 18.0604 52.5033 19.0754 52.5033 20.0892V23.999V25.7035C51.0222 25.9701 49.5304 25.7647 48.0457 25.8152C47.7214 25.8152 47.7142 25.581 47.7178 25.3431C47.7178 24.817 47.7178 24.2909 47.7178 23.5414C45.9593 25.8476 43.7179 26.1071 41.2999 25.6602C40.3724 25.5137 39.5033 25.1143 38.7881 24.5059C38.0729 23.8975 37.5393 23.1037 37.246 22.2117C36.8761 21.1712 36.6967 20.0726 36.7162 18.9685C36.7162 15.6653 36.7162 12.3632 36.7162 9.06242C36.7162 8.70207 36.6514 8.30208 37.1991 8.28046C37.988 8.3728 38.785 8.3728 39.5738 8.28046C40.0733 8.3261 40.5752 8.34054 41.0765 8.3237C41.6927 8.26965 41.8188 8.51829 41.7972 9.08404C41.7648 10.2876 41.7972 11.4912 41.7972 12.6876C41.7905 12.693 41.785 12.6998 41.7812 12.7076C41.7775 12.7154 41.7755 12.724 41.7755 12.7326C41.7755 12.7413 41.7775 12.7498 41.7812 12.7576C41.785 12.7654 41.7905 12.7723 41.7972 12.7777L41.8008 17.7289C41.746 18.4459 41.9311 19.1609 42.3269 19.7613C43.0476 20.7018 44.1863 21.0117 45.5052 20.6225C46.6151 20.2946 47.1881 19.4694 47.289 18.0676C47.4259 14.8461 47.3178 11.6209 47.343 8.39937L49.5556 8.28046C49.8313 8.36683 50.1268 8.36683 50.4024 8.28046L52.4492 8.39937L52.4925 10.1038C52.4925 11.0047 52.4925 11.9068 52.4925 12.8101V13.4948C52.4282 14.4487 52.4318 15.4061 52.5033 16.3596Z" fill="#FCFCFC"/>
<path d="M23.2751 8.91104C25.4584 8.11962 27.8541 8.14393 30.0209 8.97951L31.3722 9.70021C32.7517 10.5904 33.8538 11.8498 34.5532 13.3352C35.2526 14.8206 35.5212 16.4724 35.3285 18.1029C35.1358 19.7333 34.4895 21.277 33.4631 22.5585C32.4367 23.8399 31.0714 24.8077 29.5224 25.3517C27.9733 25.8958 26.3027 25.9944 24.7005 25.6363C23.0982 25.2781 21.6285 24.4776 20.4586 23.3258C19.2886 22.1739 18.4653 20.717 18.0822 19.1205C17.6991 17.524 17.7716 15.852 18.2914 14.2947C18.3815 14.028 18.4536 13.7578 18.5365 13.4875C18.996 12.6632 19.5164 11.8742 20.0932 11.1272L21.7184 9.74346L23.2751 8.91104ZM30.2695 17.055C30.263 16.3273 30.0403 15.6179 29.6299 15.017C29.2194 14.416 28.6396 13.9506 27.9641 13.6798C27.2886 13.409 26.5479 13.345 25.836 13.496C25.1241 13.6469 24.4731 14.006 23.9656 14.5277C23.4582 15.0493 23.1172 15.71 22.9859 16.4258C22.8547 17.1416 22.9391 17.8803 23.2284 18.5481C23.5178 19.2158 23.999 19.7825 24.6111 20.1763C25.2231 20.57 25.9384 20.773 26.666 20.7594C27.6342 20.7433 28.5567 20.3446 29.2319 19.6505C29.9071 18.9564 30.2801 18.0233 30.2695 17.055Z" fill="#FCFCFC"/>
<path d="M154.8 24.1683C154.882 23.8883 154.882 23.5908 154.8 23.3107C154.88 22.4104 154.88 21.5048 154.8 20.6044C154.879 20.3818 154.879 20.1388 154.8 19.9162C154.88 19.0171 154.88 18.1126 154.8 17.2135C154.881 16.931 154.881 16.6313 154.8 16.3487C154.88 15.4496 154.88 14.5451 154.8 13.646C154.883 13.3662 154.883 13.0683 154.8 12.7884C154.879 11.888 154.879 10.9825 154.8 10.0822C154.882 9.80217 154.882 9.50451 154.8 9.22452C154.88 8.32423 154.88 7.41857 154.8 6.51827C154.882 6.2382 154.882 5.94071 154.8 5.66064L154.869 3.31474L155.535 3.24628H155.95C157.031 3.24628 158.112 3.31835 159.168 3.2715C159.831 3.24267 159.953 3.4769 159.953 4.0895C159.931 10.4497 159.953 16.8063 159.953 23.1665C159.953 23.5053 159.982 23.8404 160 24.1791C160 24.5719 159.964 24.9683 159.957 25.3611C159.957 25.6025 159.957 25.8476 159.625 25.8332C158.025 25.7611 156.418 26.0133 154.825 25.6998L154.8 24.1683Z" fill="#FBFBFB"/>
<path d="M115.255 9.23534V10.2551C115.255 11.0455 115.255 11.8359 115.255 12.6263V14.4857C115.255 14.995 115.255 15.5031 115.255 16.01C115.255 16.4064 115.255 16.8027 115.255 17.1991C115.255 18.0472 115.255 18.894 115.255 19.7396C115.255 21.5161 115.208 23.2891 115.234 25.0656C115.234 25.6458 115.097 25.8512 114.491 25.826C113.252 25.7791 112.012 25.7899 110.769 25.826C110.293 25.826 110.142 25.689 110.142 25.2025C110.156 19.7612 110.156 14.3199 110.142 8.87859C110.142 8.61914 110.142 8.36689 110.441 8.26239C111.174 8.35475 111.916 8.35475 112.65 8.26239C112.926 8.34718 113.221 8.34718 113.497 8.26239C113.744 8.30527 113.995 8.32218 114.246 8.31284C114.978 8.22275 115.37 8.44257 115.255 9.23534Z" fill="#FCFCFC"/>
<path d="M112.199 6.44262C109.5 5.55255 108.754 3.46972 110.297 1.13103C110.941 0.519525 111.775 0.14586 112.661 0.0715942L113.151 0.0715942C113.696 0.199874 114.206 0.449097 114.643 0.800865C115.08 1.15263 115.432 1.59796 115.673 2.10398C116.318 4.21925 115.057 6.29127 112.635 6.48226L112.199 6.44262Z" fill="#019D97"/>
</svg>
