<svg width="432" height="549" viewBox="0 0 432 549" fill="none" xmlns="http://www.w3.org/2000/svg">
<g clip-path="url(#clip0_85_575)">
<path d="M196.139 401.685C236.672 401.786 267.999 434.034 267.854 475.539C267.724 513.968 234.819 545.855 195.473 545.725C176.326 545.631 158.001 537.953 144.528 524.381C131.056 510.808 123.54 492.452 123.634 473.351C123.728 454.25 131.425 435.969 145.03 422.529C158.635 409.089 177.035 401.591 196.182 401.685H196.139ZM206.272 449.183C206.779 447.508 209.167 446.901 207.879 444.851C206.59 442.8 205.056 444.374 203.536 444.504C201.64 444.677 200.481 446.093 199.193 447.132C198.468 447.793 197.566 448.23 196.598 448.389C195.629 448.548 194.634 448.422 193.735 448.028C183.12 444.35 172.402 440.879 161.584 437.615C157.762 436.46 153.665 435.55 149.815 437.717C148.642 438.366 146.818 438.944 146.919 440.605C147.021 442.266 148.83 442.193 149.974 442.684C158.746 446.425 167.505 450.18 176.321 453.805C180.616 455.509 184.64 457.83 188.263 460.693C190.232 462.282 190.073 463.192 188.119 464.52C184.683 466.67 181.421 469.084 178.362 471.741C172.209 477.518 165.652 480.319 157.501 476.073C156.983 475.804 156.407 475.661 155.822 475.655C154.737 475.742 153.688 476.081 152.758 476.645C151.828 477.21 151.043 477.983 150.466 478.904C149.308 480.348 151.335 481.359 152.087 482.457C153.289 484.175 154.664 485.764 155.953 487.41C150.582 486.11 145.906 486.356 141.635 490.732C145.008 491.959 147.976 493.028 150.944 494.14C152.84 494.847 154.968 495.035 154.679 498.212C154.661 498.66 154.766 499.105 154.982 499.498C155.199 499.89 155.518 500.217 155.906 500.443C156.295 500.668 156.737 500.784 157.187 500.778C157.636 500.772 158.075 500.644 158.457 500.407C162.119 498.487 163.654 500.783 165.391 503.18C166.752 505.043 168.286 506.776 169.589 508.682C171.037 510.878 171.775 510.127 172.817 508.278C173.526 506.948 173.91 505.47 173.938 503.965C173.965 502.459 173.636 500.968 172.977 499.613C172.426 498.169 170.979 496.436 173.556 495.281C182.155 491.28 189.479 485.302 196.718 479.308C200.8 475.9 206.156 476.42 210.166 473.431C210.716 473.012 212.149 473.431 213.061 473.821C220.603 476.709 228.232 479.381 234.472 484.883C237.72 487.528 241.103 490.005 244.605 492.306C245.618 493.028 246.501 494.328 248.007 493.548C248.701 493.149 249.264 492.556 249.626 491.843C249.989 491.13 250.135 490.328 250.048 489.533C250.095 488.526 249.941 487.521 249.595 486.574C249.25 485.627 248.72 484.758 248.036 484.016C245.416 481.128 243.027 478.037 240.392 475.164C237.338 471.828 232.763 468.853 239.032 464.347C239.254 464.214 239.444 464.035 239.592 463.823C239.739 463.61 239.839 463.369 239.886 463.115C239.932 462.861 239.924 462.599 239.862 462.349C239.799 462.098 239.684 461.864 239.524 461.661C238.684 460.52 237.627 460.736 236.411 460.881C233.777 461.184 231.982 462.903 230.042 464.361C227.566 466.239 225.699 464.968 225.091 462.773C224.648 461.788 224.589 460.673 224.927 459.648C225.264 458.622 225.973 457.759 226.915 457.227C232.373 453.703 237.613 449.761 241.261 444.23C242.477 442.396 244.402 440.33 242.52 437.977C240.639 435.623 238.279 436.951 236.064 437.457C233.849 437.962 232.112 440.013 229.97 439.103C225.945 437.428 222.934 439.32 219.909 441.327C216.883 443.334 213.814 445.659 210.76 447.912C209.515 448.75 208.458 450.006 206.257 449.183H206.272Z" fill="#484847"/>
<path d="M183.399 317.693L187.308 361.017L187.105 367.949C182.053 367.949 176.972 368.152 171.934 368.152C139.121 368.152 106.309 368.108 73.4958 368.022L72.3667 367.372C72.2558 367.284 72.1723 367.167 72.1262 367.034C72.08 366.901 72.073 366.758 72.1061 366.621C72.8154 359.097 71.4257 351.76 69.9636 344.438C69.9636 344.256 69.9636 344.077 69.9636 343.904C70.7164 340.597 72.9312 339.283 76.1739 338.676C84.2563 337.158 92.0641 334.436 99.3359 330.603C106.864 326.646 113.942 321.938 118.604 314.472C120.167 313.779 121.702 313.028 123.294 312.393C130.829 309.474 138.023 305.746 144.748 301.273C145.84 300.593 146.732 299.636 147.33 298.499C147.928 297.361 148.211 296.086 148.15 294.803C148.295 288.55 146.036 282.614 146.876 276.115C147.831 268.736 140.087 263.854 139.189 256.648C139.189 256.417 138.813 256.229 138.624 256.013C134.18 250.756 129.577 245.904 122.02 251.045C117.837 240.329 111.033 231.318 103.52 222.797C99.915 218.71 99.7991 218.811 105.083 217.324C105.223 217.316 105.363 217.316 105.503 217.324L108.036 217.41C107.602 221.194 109.122 223.187 113.059 223.88C116 224.493 119.03 224.547 121.991 224.039C126.522 223.057 130.489 221.367 129.808 215.721C136.294 215.23 141.911 216.501 146.239 222.061C158.587 237.946 166.954 255.839 173.252 274.787C177.971 288.723 182.676 302.76 183.399 317.693Z" fill="#019D97"/>
<path d="M402.729 18.1166C401.383 27.1137 395.607 33.7135 390.12 40.27C377.092 55.8525 360.676 67.6079 344.433 79.5222C341.654 81.5585 338.86 83.5803 336.066 85.6021C335.496 85.5011 334.911 85.5306 334.354 85.6882C333.797 85.8458 333.284 86.1274 332.852 86.5119C318.28 97.295 303.702 108.054 289.12 118.789C276.873 127.873 264.684 137.043 252.408 146.098C240.827 154.647 229.246 163.124 217.665 171.631C210.05 167.89 202.421 164.208 194.85 160.381C190.015 157.94 184.862 156.164 180.374 153.16C181.247 151.859 182.3 150.687 183.501 149.679C189.624 145.636 195.529 141.274 201.191 136.61C203.015 135.166 205.679 134.689 206.591 132.162C211.773 138.545 219.88 137.938 225.728 133.346C230.447 129.649 235.557 126.457 240.537 123.107C241.609 122.385 242.882 121.923 242.796 120.305C246.545 118.182 250.396 116.204 253.479 113.084C254.927 113.575 255.897 112.651 256.997 111.915C267.058 105.199 277.264 98.6428 287.151 91.6964C290.48 89.3714 294.563 87.725 296.112 83.2626C297.979 77.8759 296.372 73.399 293.072 69.2109C300.194 65.3839 305.709 59.3329 312.571 55.1448C313.619 54.8023 314.628 54.3522 315.582 53.8018C326.599 45.7867 337.543 37.6561 348.588 29.6699C358.794 22.2902 368.087 13.5386 379.958 8.58518C380.971 8.15194 382.593 7.7909 382.433 6.00014C388.427 3.67505 394.724 4.10829 400.963 4.03609C403.511 5.30695 403.713 7.6176 403.641 10.0438L402.729 18.1166Z" fill="#019D97"/>
<path d="M0 516.091L93.7337 399.88C95.1813 401.8 94.5878 403.418 94.5878 404.905C94.5878 432.344 94.7036 459.783 94.5878 487.222C94.5878 490.746 95.3984 492.176 99.1188 491.844C102.564 491.54 106.067 491.844 109.527 491.743C111.843 491.641 112.422 492.45 112.422 494.746C112.234 500.797 112.278 506.877 112.422 512.928C112.422 515.311 111.8 516.337 109.252 516.192C105.792 516.004 102.289 516.351 98.8438 516.091C95.6735 515.845 94.5009 516.741 94.6601 520.106C94.9062 528.179 94.5878 536.28 94.8194 544.353C94.9207 547.689 93.806 548.469 90.6068 548.382C82.3698 548.151 74.1184 548.209 65.8669 548.382C63.044 548.382 62.0886 547.631 62.1465 544.743C62.3202 536.959 61.8715 529.132 62.3202 521.377C62.5953 516.741 60.8726 516.004 56.7613 516.048C39.2596 516.279 21.7433 516.149 4.24154 516.149L0 516.091ZM62.132 473.691L61.1911 473.315L47.4531 491.786C52.2303 491.786 55.9507 491.786 59.6566 491.786C61.5964 491.786 62.161 490.963 62.1465 489.186C62.1031 484.045 62.132 478.875 62.132 473.705V473.691Z" fill="#484847"/>
<path d="M275.208 516.105L368.869 399.966C370.317 401.627 369.738 403.259 369.738 404.703C369.738 432.142 369.839 459.581 369.738 487.02C369.738 490.775 370.635 492.363 374.558 491.829C376.578 491.69 378.604 491.69 380.624 491.829C387.355 491.829 387.355 491.829 387.37 498.761C387.37 503.527 387.268 508.293 387.37 513.044C387.37 515.441 386.718 516.409 384.185 516.264C380.87 516.062 377.511 516.481 374.211 516.149C370.432 515.773 369.636 517.319 369.738 520.799C369.984 528.727 369.738 536.685 369.882 544.613C369.969 547.732 368.869 548.527 365.901 548.455C357.954 548.281 349.978 548.223 342.03 548.455C338.527 548.556 337.224 547.704 337.354 543.978C337.644 536.049 337.267 528.092 337.513 520.164C337.615 516.799 336.457 516.105 333.315 516.134C314.366 516.163 295.417 516.105 275.208 516.105ZM322.458 491.844H335.096C336.384 491.844 337.456 491.54 337.47 490.01C337.47 484.478 337.47 478.933 337.47 473.402L336.529 473.142L322.458 491.844Z" fill="#484847"/>
<path d="M168.069 80.432C154.65 74.8576 141.187 69.3987 127.825 63.6798C105.329 54.0473 82.9489 44.1981 60.4383 34.5078C49.5811 29.8287 38.5792 25.4529 27.751 20.7161C22.1197 18.2466 21.8012 15.5605 26.7666 12.3544C31.7319 9.14841 35.655 5.13365 40.7361 2.24534C44.2408 0.441837 48.2755 -0.0548928 52.1145 0.844505C59.5553 2.28866 67.0974 0.844505 74.5382 2.28866C77.6372 2.89818 80.701 3.67434 83.7161 4.61376C94.5009 7.99308 105.155 11.9212 115.984 15.2428C134.571 20.9327 152.898 27.417 171.529 32.977C185.006 37.0062 198.194 42.0319 211.512 46.6099C210.991 48.8194 208.878 49.4982 207.416 50.7835C203.174 54.5094 197.76 56.3724 193.185 59.4484C187.291 63.5352 181.689 68.0279 176.422 72.8935C173.715 75.4641 170.009 77.0094 168.069 80.432Z" fill="#019D97"/>
<path d="M180.258 153.189C184.789 156.221 189.943 158.012 194.734 160.409C202.306 164.236 209.935 167.919 217.549 171.659C217.517 171.846 217.529 172.038 217.583 172.219C217.637 172.401 217.732 172.568 217.86 172.707C217.989 172.846 218.148 172.954 218.325 173.023C218.501 173.092 218.692 173.119 218.881 173.104C225.41 183.891 225.207 189.957 217.563 199.821C213.785 204.687 209.602 209.236 205.707 214.017C204.028 216.067 201.582 217.714 201.625 220.819C191.839 212.154 181.865 203.691 171.5 195.719C173.599 196.167 174.743 193.928 176.654 193.856C181.995 195.3 187.004 198.073 192.751 197.929C187.554 195.502 182.401 193.076 176.712 192.152C175.859 192.077 175.016 191.922 174.193 191.69C165.188 188.253 156.199 184.758 147.18 181.335C141.607 179.212 141.288 179.516 141.129 185.466C140.955 191.748 138.552 197.019 132.834 200.037C129.939 201.481 129.403 203.142 130.894 205.814C129.78 206.319 128.375 206.363 128.433 208.254C128.491 210.146 129.881 210.478 131.329 210.796C130.619 212.327 129.403 213.684 129.881 215.591C130.561 221.252 126.595 222.927 122.064 223.909C119.103 224.417 116.073 224.363 113.132 223.75C109.194 223.1 107.674 221.079 108.109 217.28C107.964 215.374 108.702 213.338 107.298 211.59L107.703 210.348C108.167 209.684 108.253 209.078 107.428 208.601C106.227 207.027 104.345 208.023 102.883 207.402C103.259 204.76 101.088 204.269 99.4374 203.344C99.8282 200.716 98.6701 199.315 96.0499 199.012C95.9679 198.982 95.9007 198.922 95.8628 198.844C95.825 198.765 95.8193 198.675 95.8472 198.593L95.0945 197.293L94.9352 196.051C95.0655 195.156 95.109 194.304 94.0377 193.928V194.044C92.5901 190.145 91.2293 193.134 89.8251 194.044L89.5501 194.203C88.1025 193.235 85.3085 194.983 84.6571 192.051C87.8419 192.34 88.8697 191.199 87.5524 188.108C86.8332 186.279 86.2099 184.413 85.6849 182.52L88.1893 178.259L94.3128 176.526C95.5432 177.855 97.208 177.118 98.6556 177.321C99.6545 179.111 101.652 179.646 103.1 180.859C103.346 182.736 104.359 184.209 106.285 183.993C108.21 183.776 109.904 183.097 110.005 180.729C114 178.967 117.489 176.728 118.083 171.876C120.384 174.057 124.206 175.515 121.528 179.92C120.891 180.974 121.832 181.509 122.874 181.162C124.887 180.483 126.305 179.415 124.944 177.017L122.093 172.223C124.669 172.425 127.145 173.537 129.794 173.031C133.109 177.046 134.209 173.031 135.932 171.342C137.481 171.558 139.117 172.786 139.797 169.898C141.483 163.925 141.776 157.646 140.651 151.542C138.393 141.289 133.543 132.768 123.989 127.136C118.951 124.248 114.029 121.518 108.065 121.085C106.762 117.778 103.317 115.771 102.984 111.842C101.232 115.308 102.883 117.749 104.721 120.132C101.478 120.738 98.0187 119.352 94.9497 120.984C93.7574 121.645 92.4197 122.002 91.0557 122.022C89.6917 122.042 88.3439 121.725 87.1325 121.099C87.1325 120.233 87.1325 119.367 87.1325 118.5C87.7551 118.111 88.2386 117.536 88.5141 116.856C88.7897 116.177 88.8432 115.428 88.667 114.716C89.0579 112.637 90.5345 111.178 91.6636 109.546C93.9943 106.21 96.9474 106.499 99.9295 108.535C101.623 109.691 102.521 109.979 103.983 107.885C110.352 98.5418 110.164 99.2205 120.225 104.477C132.617 111.034 142.099 120.637 151.146 130.891C151.982 131.904 152.75 132.97 153.448 134.082C155.098 137.317 155.301 141.78 158.732 143.513C165.658 147.264 172.853 150.499 180.258 153.189ZM159.991 152.134L158.616 152.004C158.616 153.781 158.616 155.543 158.616 157.319C158.665 161.361 157.523 165.328 155.33 168.728C154.201 170.504 150.64 173.06 152.29 173.912C154.722 175.154 156.011 171.024 157.27 169.161C160.686 163.933 162.134 158.171 159.977 152.134H159.991ZM117.793 190.174C119.241 189.437 120.848 188.556 120.775 186.852C120.823 186.415 120.771 185.974 120.622 185.56C120.474 185.147 120.232 184.773 119.917 184.467C119.602 184.16 119.22 183.93 118.802 183.793C118.384 183.655 117.94 183.615 117.504 183.675C117.105 183.659 116.708 183.725 116.336 183.869C115.964 184.013 115.626 184.233 115.344 184.513C115.061 184.794 114.839 185.13 114.693 185.5C114.547 185.87 114.478 186.267 114.493 186.664C114.608 188.542 116.085 189.553 117.793 190.174ZM126.059 204.615L125.741 203.344C121.803 204.355 117.866 205.337 113.943 206.406C113.696 206.509 113.479 206.671 113.31 206.878C113.141 207.084 113.025 207.329 112.973 207.59C112.973 208.587 113.928 208.601 114.579 208.442C118.541 207.618 122.393 206.338 126.059 204.63V204.615Z" fill="#FB9671"/>
<path d="M122.093 251.03C129.649 245.961 134.238 250.741 138.697 255.998C138.885 256.215 139.232 256.403 139.261 256.634C140.159 263.854 147.947 268.736 146.948 276.101C146.109 282.585 148.396 288.521 148.222 294.788C148.283 296.071 148 297.347 147.402 298.484C146.804 299.621 145.913 300.579 144.82 301.258C138.095 305.731 130.901 309.46 123.367 312.378C121.774 312.999 120.24 313.822 118.676 314.458C117.562 313.014 116.114 313.49 114.695 313.75C103.592 315.786 92.4453 317.563 81.2117 318.747C77.5492 320.061 73.3656 319.093 69.9058 321.274C58.0787 322.328 46.3529 324.538 34.439 324.74C31.8262 324.056 29.3989 322.799 27.3333 321.063C25.2678 319.326 23.6157 317.152 22.4972 314.699C21.3786 312.246 20.8215 309.575 20.8664 306.881C20.9113 304.186 21.557 301.535 22.7566 299.121C25.6519 292.998 30.4435 287.929 32.6729 281.444C35.4813 279.061 38.5647 276.881 38.7239 272.678L57.0364 283.163C52.3171 285.459 47.0478 285.459 42.0969 286.788C40.3163 287.264 38.1304 287.149 36.7407 290.138C43.9788 288.593 50.5076 287.25 57.0074 285.806C58.4551 285.488 58.6722 284.362 58.7011 283.206C68.9793 282.051 78.7942 278.758 88.9275 276.895C90.2738 276.65 90.3752 275.451 90.795 274.31C93.5284 266.031 95.8427 257.62 97.7291 249.11C102.202 252.272 105.546 250.453 106.415 244.329C106.531 243.506 107.747 242.308 106.125 241.86C104.504 241.412 104.678 242.929 104.475 243.81C103.737 247.564 101.493 249.124 97.7436 248.647L97.6422 245.904C98.0918 245.69 98.4871 245.378 98.798 244.99C99.109 244.603 99.3276 244.15 99.4373 243.665C101.131 238.582 103.389 237.34 108.398 238.596C114.102 240.04 116.621 244.373 115.955 251.435C115.868 252.388 114.507 253.688 116.273 254.323C116.878 254.579 117.547 254.642 118.189 254.505C118.831 254.368 119.416 254.037 119.863 253.558C120.659 252.792 121.354 251.882 122.093 251.03ZM114.854 257.139C108.123 259.103 103.534 263.869 98.8438 268.49C98.699 268.635 98.8438 269.4 99.1478 269.573C99.3332 269.65 99.5346 269.679 99.7341 269.659C99.9337 269.639 100.125 269.57 100.291 269.458C105.204 265.376 110.077 261.269 114.912 257.139H114.854Z" fill="#FD956F"/>
<path d="M180.258 153.189C172.843 150.5 165.638 147.266 158.703 143.513C155.272 141.78 155.069 137.317 153.419 134.082C158.124 133.837 161.048 130.097 164.218 127.613C170.559 122.674 177.247 118.255 183.631 113.388C186.932 110.86 189.798 107.813 193.432 105.661C195.835 104.217 195.241 102.297 193.301 100.78C189.441 97.786 185.547 94.8447 181.619 91.9564C180.548 91.1766 179.404 90.5845 179.346 89.0681C181.778 88.7648 183.298 90.5122 184.992 91.682C191.463 96.0007 197.164 101.37 201.857 107.568C202.016 112.088 202.87 112.695 207.387 111.539C212.207 111.539 214.422 115.872 217.592 118.283C220.763 120.695 223.18 120.421 226.046 118.283C235.224 111.38 244.344 104.405 253.696 97.7186C260.587 92.7796 266.435 86.5119 273.963 82.3528C276.974 80.692 276.482 77.8614 273.21 76.5761C270.648 75.5219 268.013 74.7709 266.696 71.9837C266.392 71.3483 265.465 70.7562 264.93 71.4638C262.281 74.9876 261.73 71.8393 260.587 70.2218C260.334 69.6945 259.947 69.2424 259.464 68.9105C258.982 68.5786 258.42 68.3785 257.836 68.33C254.55 68.4455 253.03 66.1204 251.409 63.9109C254.304 61.889 257.315 60.0405 260.008 57.8021C262.208 55.9824 265.523 55.217 266.189 51.8088C271.98 47.6496 277.538 43.2161 283.561 39.3602C296.285 31.1285 307.244 20.3984 320.837 13.3653C327.67 9.8416 334.488 6.85219 342.551 7.47318C345.428 7.58033 348.231 8.40984 350.701 9.88492C351.942 10.7238 353.392 11.2031 354.89 11.2693C356.387 11.3356 357.874 10.9864 359.184 10.2604C367.696 6.43339 376.223 2.49084 385.56 1.11889C390.149 0.454575 394.984 -0.541893 399.443 2.11536C399.826 2.30075 400.158 2.57649 400.41 2.91872C400.663 3.26094 400.827 3.65933 400.891 4.07941C394.651 4.07941 388.354 3.71837 382.361 6.04347C376.266 7.24212 371.171 10.5926 366.321 14.1019C349.095 26.5649 331.998 39.3602 314.844 51.9244C313.7 52.7764 312.31 53.4552 312.455 55.217C305.593 59.4195 300.078 65.4561 292.956 69.2831C291.696 68.7055 291.233 66.6548 288.844 67.0591C289.988 68.691 290.857 69.9474 291.74 71.2039C296.792 78.2513 296.083 82.8438 289.018 87.8406C281.259 93.285 273.225 98.3251 265.581 103.914C261.47 106.918 256.461 108.781 253.363 113.113C250.28 116.218 246.429 118.182 242.68 120.334C240.508 120.334 238.988 121.778 237.352 122.934C232.807 125.981 228.406 129.23 223.846 132.248C215.334 137.866 209.167 135.397 206.938 125.576C206.779 124.854 206.706 123.988 205.823 124.046C204.665 124.046 204.535 125.201 204.737 126.01C205.23 128.104 205.896 130.14 206.489 132.205C205.577 134.732 202.913 135.238 201.089 136.653C195.427 141.317 189.522 145.679 183.399 149.723C182.194 150.725 181.137 151.892 180.258 153.189ZM185.296 126.472C185.296 123.728 183.038 121.85 180.953 122.962C176.912 125.127 173.194 127.844 169.908 131.035C169.411 131.577 169.125 132.278 169.101 133.011C169.077 133.745 169.317 134.463 169.777 135.036C170.095 135.613 170.615 136.052 171.238 136.268C171.861 136.484 172.543 136.462 173.15 136.205C177.455 133.95 181.414 131.09 184.905 127.714C185.209 127.454 185.209 126.674 185.296 126.472ZM303.118 40.1833C304.942 40.0967 315.104 32.4138 315.625 30.753C315.814 30.2055 315.854 29.6182 315.742 29.0503C315.63 28.4824 315.37 27.9539 314.989 27.5181C314.621 26.9649 314.057 26.57 313.411 26.4122C312.765 26.2543 312.082 26.3449 311.5 26.666C307.697 29.1981 303.991 31.8746 300.382 34.6956C299.913 35.1619 299.618 35.7748 299.547 36.4318C299.476 37.0888 299.632 37.7504 299.991 38.3059C300.26 38.8923 300.699 39.3846 301.251 39.7193C301.803 40.0541 302.444 40.2157 303.089 40.1833H303.118ZM270.344 64.1997C272.066 64.1997 282.46 56.6179 282.924 54.986C283.142 54.3738 283.179 53.7117 283.031 53.0791C282.882 52.4464 282.553 51.87 282.084 51.4189C281.634 50.9337 281.03 50.6173 280.374 50.5227C279.718 50.4281 279.049 50.5609 278.479 50.899C274.802 53.3685 271.241 55.9969 267.724 58.7119C267.267 59.1843 266.977 59.7916 266.896 60.4425C266.815 61.0935 266.948 61.753 267.275 62.3223C267.499 62.9349 267.924 63.4538 268.481 63.7947C269.038 64.1356 269.695 64.2783 270.344 64.1997ZM332.143 12.7877C328.234 13.1054 325.209 16.1959 321.85 18.5643C319.939 19.9218 319.346 21.8859 320.837 23.7922C322.328 25.6984 324.08 25.4096 325.831 24.0954C328.726 21.9581 331.622 19.8929 334.517 17.6545C335.516 16.8602 337.6 16.5136 336.804 14.564C336.08 12.9321 334.401 12.7588 332.143 12.7877Z" fill="#019D97"/>
<path d="M380.03 136.725C383.793 139.79 387.072 143.403 389.758 147.441C398.762 159.63 409.837 169.97 419.058 181.927C422.721 186.679 427.599 190.506 430.205 196.095C434.345 204.976 430.943 219.519 423.387 225.613C422.602 226.366 421.562 226.797 420.473 226.821C419.385 226.845 418.327 226.46 417.509 225.743C403.892 215.865 390.265 206.002 376.628 196.152C368.478 190.246 360.198 184.512 352.323 178.259C347.647 174.548 342.03 172.02 338.281 167.154C341.523 164.641 344.694 162.041 348.023 159.658C352.453 156.496 357.476 154.012 361.385 150.315C367.088 144.943 373.863 141.289 380.03 136.725Z" fill="#019D97"/>
<path d="M201.857 107.64C197.164 101.442 191.463 96.0729 184.992 91.7542C183.298 90.57 181.778 88.8659 179.346 89.1403C175.241 86.7308 171.452 83.8201 168.069 80.4754C170.009 77.0527 173.642 75.4641 176.422 72.9657C181.689 68.1001 187.291 63.6075 193.185 59.5206C197.774 56.4301 203.188 54.5527 207.416 50.8557C208.863 49.5704 210.991 48.8916 211.512 46.6821L213.235 46.7687C213.38 48.4728 214.683 48.4295 215.855 48.4151L217.578 50.4658C215.754 51.9099 213.886 53.2097 212.091 54.6538C205.852 59.6939 204.549 67.9545 209.022 73.89C213.93 80.4031 222.051 81.5729 228.855 76.7783L246.82 63.9109H251.481C253.103 66.1349 254.623 68.4455 257.909 68.33C258.493 68.3785 259.054 68.5786 259.536 68.9105C260.019 69.2424 260.406 69.6945 260.659 70.2218C261.745 71.8393 262.28 74.9876 265.002 71.4638C265.538 70.7417 266.45 71.3483 266.768 71.9837C268.085 74.7709 270.72 75.5219 273.282 76.5761C276.54 77.9048 277.032 80.7353 274.035 82.3528C266.508 86.5119 260.659 92.7796 253.768 97.7186C244.431 104.405 235.311 111.38 226.119 118.283C223.224 120.435 220.907 120.825 217.665 118.283C214.422 115.742 212.28 111.597 207.459 111.539C205.968 109.705 204.564 107.755 201.857 107.64Z" fill="#019D97"/>
<path d="M380.03 136.725C373.863 141.303 367.089 144.943 361.414 150.3C357.505 153.983 352.468 156.481 348.052 159.644C344.723 162.027 341.552 164.641 338.31 167.139C331.564 164.756 324.774 162.489 318.043 159.918C306.23 155.427 294.49 150.777 282.707 146.199C282.591 143.715 279.811 144.307 278.364 142.242C290.147 134.53 301.062 125.721 313.107 118.486C315.075 117.301 317.449 116.392 318.897 114.731C322.357 110.745 327.583 109.647 331.419 106.34C335.501 109.012 340.25 110.673 343.565 114.456C341.408 116.132 339.222 117.749 337.123 119.496C330.739 124.797 329.45 129.418 332.128 137.029C334.807 144.639 345.751 147.383 352.641 142.603C358.533 138.516 363.658 133.303 370.317 130.299C373.777 132.086 377.034 134.24 380.03 136.725Z" fill="#019D97"/>
<path d="M122.093 251.03C121.354 251.897 120.645 252.792 119.878 253.615C119.431 254.095 118.846 254.426 118.204 254.563C117.561 254.7 116.892 254.636 116.288 254.381C114.507 253.716 115.882 252.431 115.969 251.492C116.635 244.431 114.116 240.084 108.413 238.654C103.404 237.397 101.174 238.654 99.4518 243.723C99.332 244.19 99.1102 244.625 98.8025 244.997C98.4947 245.369 98.1084 245.669 97.6712 245.875C95.2581 241.995 92.649 238.24 89.8541 234.625C86.0902 230.177 82.9344 224.097 75.3778 226.046C70.5845 227.196 66.1648 229.547 62.5374 232.877C52.1 242.654 45.6436 255.262 38.0002 267.032C37.663 267.449 37.4133 267.93 37.2661 268.446C37.119 268.962 37.0772 269.502 37.1434 270.034C37.2096 270.566 37.3823 271.079 37.6513 271.544C37.9204 272.008 38.2802 272.413 38.7095 272.736C38.5503 276.939 35.4668 279.119 32.6584 281.502L31.8478 273.631C32.3246 272.844 32.5644 271.937 32.5388 271.018C32.5131 270.099 32.223 269.206 31.703 268.447C31.5583 265.559 31.4183 262.704 31.2832 259.883C31.8181 255.784 31.8181 251.634 31.2832 247.535L31.6451 244.156C31.8446 244.002 32.0116 243.81 32.1364 243.592C32.2612 243.373 32.3414 243.132 32.3724 242.882C32.4033 242.633 32.3844 242.379 32.3167 242.137C32.2491 241.894 32.134 241.668 31.9781 241.47L32.3979 239.795C32.5756 239.747 32.7407 239.661 32.8811 239.543C33.0215 239.424 33.1338 239.276 33.21 239.109C33.2861 238.942 33.3242 238.76 33.3214 238.576C33.3187 238.393 33.2752 238.212 33.1941 238.047L37.0737 228.79C37.4356 228.574 37.9857 228.444 38.1305 228.112C41.8219 220.414 48.1335 215.461 55.198 211.056C59.8014 208.168 65.3313 207.85 69.819 205.077L74.1618 204.731C74.302 204.826 74.4605 204.891 74.6274 204.922C74.7942 204.952 74.9657 204.948 75.1306 204.908C75.2956 204.869 75.4505 204.795 75.5853 204.693C75.7201 204.59 75.8319 204.46 75.9135 204.312L78.4034 204.24H80.2853C86.4087 204.918 92.4743 204.052 98.5398 203.373C98.8048 203.394 99.071 203.394 99.336 203.373C101.001 204.297 103.172 204.817 102.781 207.431L88.8986 208.413C88.3051 207.662 87.7405 207.706 87.2339 208.5L79.4457 209.236C79.0693 208.832 78.7508 208.89 78.4902 209.352C59.6711 211.128 46.3819 220.429 38.8398 237.773C38.2897 239.044 37.0447 240.661 38.7674 241.571C40.4901 242.481 41.9377 241.571 42.8642 239.665C44.1696 236.938 45.6442 234.295 47.2794 231.751C52.3751 223.866 58.9618 217.916 68.5595 216.096C70.6441 216.544 72.5984 216.515 74.075 214.652L77.7809 213.988C78.6495 214.854 79.4457 214.854 80.155 213.786L85.4678 213.121C86.7272 214.45 89.0289 213.035 90.1002 214.854C76.9557 218.941 72.7287 221.324 70.9336 226.407C80.5169 218.277 91.2872 216.183 102.695 216.212C103.679 216.385 104.765 216.212 105.459 217.194C105.32 217.186 105.179 217.186 105.04 217.194C99.7558 218.638 99.8716 218.638 103.476 222.667C111.105 231.303 117.923 240.315 122.093 251.03ZM35.9446 251.03C35.9446 254.092 36.2775 256.273 39.5057 256.258C42.1404 256.258 42.9076 254.554 42.9655 252.301C43.0524 248.749 40.7362 244.474 38.9556 245.08C35.9446 246.12 36.1906 249.037 35.959 251.016L35.9446 251.03Z" fill="#484847"/>
<path d="M34.4246 324.74C46.3385 324.538 58.0643 322.343 69.8913 321.274C70.3835 322.574 68.8925 324.726 71.2521 325.145C73.6117 325.563 80.0102 321.216 81.1973 318.747C92.4309 317.548 103.578 315.772 114.681 313.75C116.128 313.49 117.576 313.071 118.662 314.458C114 321.924 106.922 326.646 99.3939 330.589C92.1221 334.422 84.3143 337.143 76.2319 338.662C72.9893 339.268 70.7744 340.583 70.0216 343.89C70.0216 343.038 70.0216 341.882 69.2544 341.55C64.2601 339.528 64.1298 335.167 63.8837 330.834C63.7969 329.26 63.8837 327.686 63.8113 326.098C63.8113 325.231 63.8113 324.177 62.6388 324.162C61.4662 324.148 61.4083 325.217 61.4807 326.069C61.6833 328.481 62.19 330.892 62.161 333.29C62.161 338.951 65.1576 342.272 70.0072 344.395C71.4548 351.717 72.9024 359.039 72.1496 366.577C72.6708 359.819 68.27 357.912 62.769 356.324C56.7469 354.533 50.4642 353.046 45.1949 349.349C36.5815 343.384 34.4969 334.459 34.4246 324.74Z" fill="#484847"/>
<path d="M129.895 215.634C129.418 213.742 130.634 212.37 131.343 210.839L131.546 211.128L138.784 211.027C142.692 214.233 147.47 214.045 152.116 214.479C156.681 216.216 160.685 219.162 163.697 222.999C168.892 229.503 173.581 236.392 177.725 243.607C178.42 244.82 178.738 246.395 180.475 246.683C182.473 253.904 186.845 260.201 189.06 267.378C193.316 281.155 195.69 294.817 187.945 308.291C186.193 311.324 183.052 313.678 183.342 317.707C182.603 302.76 177.913 288.737 173.208 274.715C166.926 255.767 158.558 237.874 146.196 221.988C141.998 216.414 136.381 215.143 129.895 215.634Z" fill="#484847"/>
<path d="M87.1904 121.099C88.4018 121.725 89.7496 122.042 91.1136 122.022C92.4776 122.002 93.8153 121.645 95.0076 120.984C98.0766 119.338 101.551 120.738 104.779 120.132C105.731 120.864 106.927 121.205 108.123 121.085C114.015 121.518 118.951 124.19 124.047 127.136C133.616 132.725 138.523 141.289 140.709 151.542C141.833 157.646 141.541 163.925 139.855 169.898C139.16 172.786 137.524 171.587 135.99 171.342C133.283 169.537 131.85 172.295 129.852 173.031C127.203 173.537 124.727 172.425 122.151 172.223L120.37 169.623C120.37 167.991 119.979 166.489 118.039 167.255C116.099 168.02 116.592 169.378 117.938 170.519L118.039 171.963C117.431 176.815 113.957 179.054 109.962 180.815L103.071 180.945C101.623 179.718 99.6255 179.184 98.6267 177.407C97.6278 175.631 96.1223 175.024 94.2838 176.613L88.1603 178.346L85.931 178.129L86.6403 176.685C97.816 172.844 108.355 167.269 119.776 164.179C121.224 163.774 122.86 163.096 122.918 161.074L124.944 160.539C126.414 160.805 127.926 160.722 129.357 160.295C130.789 159.868 132.099 159.111 133.181 158.084C133.68 157.211 133.965 156.233 134.012 155.229C134.06 154.225 133.87 153.224 133.457 152.308C132.342 148.9 130.561 145.636 129.924 142.199C128.621 134.285 119.024 136.234 116.201 130.125C115.506 128.681 112.915 128.566 111.018 128.421C110.299 128.413 109.581 128.48 108.876 128.624L101.189 129.75C95.3985 127.642 90.8674 130.255 85.9165 132.985C70.8323 141.289 64.9694 156.943 71.6285 172.526C74.3645 178.938 79.214 184.599 78.7073 192.166C78.2875 192.166 77.7374 192.166 77.4624 191.964C69.486 185.22 62.9861 177.999 61.0463 167.139C60.2212 162.576 61.7557 158.373 61.1911 154.012L62.3347 148.235C63.3625 147.946 63.9416 147.369 63.681 146.228C65.1286 141.375 68.1542 137.563 71.4258 133.938C73.8433 131.209 77.3755 129.504 78.5047 125.533C79.0114 123.742 81.2407 123.425 83.0068 123.786C85.4099 124.204 86.4666 123.02 87.1904 121.099ZM129.837 162.865C128.731 162.609 127.572 162.714 126.53 163.163C125.488 163.613 124.618 164.384 124.047 165.363C121.586 165.565 122.049 166.807 123.005 168.251C125.335 171.746 127.753 171.818 133.543 169.118C137.351 167.341 135.541 164.785 134.542 162.706C133.08 159.731 131.357 161.464 129.837 162.879V162.865ZM105.532 172.223C103.952 172.064 102.362 172.418 101.001 173.234C100.074 173.811 99.2636 174.562 100.089 175.631C102.159 178.303 104.649 179.776 108.268 178.664C113.581 177.032 115.694 174.967 115.028 171.443C114.652 169.407 113.957 167.587 112.133 170.663C109.339 168.829 107.312 170.042 105.532 172.223Z" fill="#FABA95"/>
<path d="M180.533 246.683C178.796 246.395 178.478 244.82 177.783 243.607C173.639 236.392 168.95 229.503 163.755 222.999C160.743 219.162 156.739 216.216 152.174 214.479C156.908 208.341 161.714 202.232 166.361 196.022C168.113 193.683 169.691 193.654 171.558 195.734C181.923 203.705 191.897 212.168 201.683 220.833L201.857 221.021C201.845 221.159 201.866 221.298 201.919 221.426C201.972 221.554 202.055 221.668 202.161 221.757C199.627 227.389 194.923 231.289 190.985 235.823C187.699 239.607 184.037 243.073 180.533 246.683Z" fill="#019D97"/>
<path d="M232.358 40.3855C236.339 38.9414 239.249 35.7931 242.868 33.728C245.266 32.2085 248.149 31.6416 250.946 32.1394C248.687 34.3201 247.457 37.0929 249.266 39.779C251.843 43.606 253.696 48.8627 260.08 47.6497C260.876 51.0145 258.473 52.7042 256.316 54.3217C246.665 61.5424 236.933 68.7055 227.118 75.8107C224.966 77.3039 222.38 78.0455 219.761 77.9201C217.143 77.7947 214.64 76.8094 212.641 75.1175C206.142 69.6008 207.054 60.8348 214.827 55.0149C219.662 51.39 224.671 48.0107 229.419 44.2848C230.621 43.3027 233.067 42.9417 232.358 40.3855Z" fill="#019D97"/>
<path d="M385.242 112.478C385.879 115.886 384.011 118.255 381.666 120.19C378.771 122.601 375.876 125.201 372.068 126.371C365.047 130.371 359.04 135.743 352.482 140.422C346.692 144.596 339.251 143.758 335.111 138.401C330.97 133.043 332.346 125.504 338.006 121.229C346.156 115.077 354.306 108.94 362.615 102.975C366.017 100.52 369.043 96.9676 373.994 97.7186C373.903 98.4257 373.743 99.1221 373.516 99.7982C371.185 105.012 375.557 107.727 377.859 111.077C379.625 113.662 382.462 113.547 385.242 112.478Z" fill="#019D97"/>
<path d="M331.405 106.384C327.583 109.691 322.343 110.788 318.883 114.774C317.435 116.435 315.104 117.345 313.092 118.529C301.062 125.75 290.147 134.573 278.349 142.285C279.797 144.35 282.576 143.729 282.692 146.242C273.442 141.621 268.013 149.246 261.687 153.16C256.895 156.048 250.236 156.554 247.037 152.741C248.047 151.723 249.11 150.759 250.222 149.853C267.492 137.115 284.719 124.32 302.105 111.741C311.413 105.012 320.301 97.6897 330.058 91.5231C334.242 94.9025 334.922 98.6717 332.331 104.015C332.013 104.809 331.738 105.604 331.405 106.384Z" fill="#019D97"/>
<path d="M61.1911 153.997C61.7556 158.33 60.2212 162.561 61.0463 167.125C62.9861 177.999 69.486 185.22 77.4479 191.892C77.7229 192.123 78.273 192.036 78.6929 192.094L83.8174 195.69C82.7896 198.997 79.4746 200.875 78.5191 204.225L76.0292 204.297C75.1317 203.128 74.5816 203.604 74.2776 204.716L69.9347 205.063C67.8936 203.07 65.8814 205.727 63.8402 205.063C64.3179 201.9 61.5819 200.485 59.9606 198.709C52.4329 190.462 45.3975 181.812 38.3476 173.161C36.2919 170.634 36.5815 168.569 38.8108 166.403C43.0234 162.301 48.2638 159.529 52.4909 155.369C54.4451 153.449 58.1366 153.839 61.1911 153.997Z" fill="#019D97"/>
<path d="M63.8112 205.121C65.8524 205.727 67.8501 203.07 69.9057 205.121C65.3602 207.893 59.8882 208.226 55.2847 211.099C48.2058 215.504 41.9087 220.458 38.2172 228.155C38.058 228.473 37.5224 228.603 37.1605 228.834C37.1605 226.191 35.3075 224.949 33.1506 224.501C24.4648 222.407 16.3871 218.436 7.86056 215.836C6.19579 215.331 3.98093 214.811 4.03883 212.327C4.03883 210.218 6.03655 209.569 7.48418 208.861C14.317 205.467 21.0629 201.813 28.1707 199.098C34.0626 196.846 40.0847 199.098 45.9331 200.673C51.7815 202.247 57.9049 203.59 63.8112 205.121Z" fill="#019D97"/>
<path d="M330.058 91.552C320.301 97.6753 311.413 104.997 302.105 111.77C284.733 124.334 267.492 137.144 250.222 149.882C249.11 150.788 248.047 151.752 247.037 152.77C237.222 158.98 228.305 166.403 218.866 173.132C218.677 173.148 218.487 173.121 218.31 173.052C218.133 172.983 217.974 172.875 217.846 172.736C217.717 172.596 217.622 172.43 217.568 172.248C217.515 172.067 217.503 171.875 217.534 171.688C229.115 163.182 240.769 154.719 252.277 146.17C264.539 137.101 276.728 127.945 288.989 118.861C303.552 108.068 318.13 97.2901 332.722 86.5264C333.154 86.1419 333.667 85.8602 334.224 85.7026C334.781 85.545 335.366 85.5156 335.936 85.6165C335.226 88.7359 331.419 88.8948 330.058 91.552Z" fill="#019D97"/>
<path d="M385.242 112.478C382.462 113.547 379.61 113.662 377.801 111.034C375.485 107.683 371.098 104.968 373.458 99.7549C373.685 99.0788 373.845 98.3823 373.936 97.6753C375.218 97.4937 376.423 96.9529 377.41 96.1156C382.028 93.2273 387.239 93.9927 390.004 98.0219C392.769 102.051 391.771 107.236 387.558 110.6L385.242 112.478Z" fill="#484847"/>
<path d="M260.08 47.6063C253.696 48.8194 251.829 43.5627 249.266 39.7357C247.457 37.0495 248.687 34.2767 250.946 32.0961C252.162 31.3595 253.32 30.5219 254.594 29.901C256.402 28.9983 258.468 28.7467 260.441 29.1888C262.414 29.6309 264.174 30.7396 265.422 32.3271C266.647 33.9308 267.288 35.9026 267.241 37.9183C267.194 39.934 266.46 41.8736 265.161 43.4183C264.437 44.2992 263.554 45.0502 262.758 45.8444C262.266 45.8444 261.875 45.9744 261.948 46.5954C261.671 46.6883 261.443 46.8853 261.311 47.1442L260.08 47.6063Z" fill="#484847"/>
<path d="M373.979 97.6897C369.028 96.9387 366.017 100.506 362.601 102.946C354.321 108.911 346.156 115.063 337.991 121.201C332.331 125.533 331.072 133.187 335.096 138.372C339.12 143.556 346.677 144.567 352.468 140.393C358.996 135.729 365.033 130.284 372.054 126.342C372.343 128.046 370.823 128.956 370.288 130.299C363.629 133.317 358.504 138.516 352.612 142.603C345.722 147.383 334.734 144.509 332.099 137.029C329.465 129.548 330.652 124.797 337.094 119.496C339.193 117.749 341.437 116.132 343.536 114.456C351.338 108.839 359.098 103.163 366.958 97.6175C369.144 96.0867 371.678 94.7292 373.979 97.6897Z" fill="#019D97"/>
<path d="M260.08 47.6063L261.311 47.1442C262.454 48.6894 261.716 50.2347 261.311 51.7944C257.286 56.7912 251.177 59.2318 246.834 63.882L228.869 76.6339C222.08 81.4718 213.944 80.3165 209.037 73.7456C204.578 67.8101 205.881 59.5639 212.106 54.5094C213.887 53.0652 215.754 51.7222 217.592 50.3213C222.891 47.5485 226.93 42.9128 232.358 40.3278C233.14 42.8839 230.621 43.2161 229.463 44.1692C224.715 47.8951 219.706 51.2745 214.871 54.8993C207.097 60.6759 206.185 69.4853 212.685 75.002C214.684 76.6939 217.187 77.6792 219.805 77.8045C222.423 77.9299 225.009 77.1883 227.161 75.6952C236.889 68.6381 246.608 61.4991 256.316 54.2783C258.488 52.6609 260.876 50.9134 260.08 47.6063Z" fill="#019D97"/>
<path d="M246.82 63.9109C251.163 59.2462 257.301 56.82 261.296 51.8233H266.247C265.581 55.2315 262.266 55.9969 260.066 57.8165C257.359 60.055 254.275 61.9035 251.467 63.9253L246.82 63.9109Z" fill="#F8F5F7"/>
<path d="M31.3266 247.521C31.8615 251.62 31.8615 255.77 31.3266 259.869C30.2914 257.975 29.749 255.852 29.749 253.695C29.749 251.538 30.2914 249.415 31.3266 247.521Z" fill="#019D97"/>
<path d="M402.729 18.1166L403.612 10.0871C406.782 13.1487 405.204 15.676 402.729 18.1166Z" fill="#019D97"/>
<path d="M31.7464 268.432C32.2664 269.192 32.5565 270.084 32.5821 271.003C32.6078 271.923 32.3679 272.83 31.8911 273.617C31.1999 272.939 30.7987 272.02 30.7717 271.054C30.7447 270.087 31.094 269.148 31.7464 268.432Z" fill="#019D97"/>
<path d="M187.105 367.935L187.308 361.003C188.046 363.342 189.031 365.74 187.105 367.935Z" fill="#EB8E74"/>
<path d="M88.7539 114.716C88.93 115.428 88.8765 116.177 88.601 116.856C88.3255 117.536 87.8419 118.111 87.2194 118.5C87.1905 117.027 87.0891 115.511 88.7539 114.716Z" fill="#FABA95"/>
<path d="M32.036 241.456C32.1919 241.653 32.307 241.88 32.3746 242.122C32.4423 242.365 32.4612 242.618 32.4303 242.868C32.3993 243.118 32.3191 243.359 32.1943 243.577C32.0695 243.796 31.9025 243.988 31.703 244.142C30.5015 243.087 30.7186 242.192 32.036 241.456Z" fill="#019D97"/>
<path d="M215.87 48.3284C214.639 48.3284 213.394 48.3284 213.25 46.6821C213.81 46.6072 214.38 46.731 214.859 47.0318C215.337 47.3326 215.695 47.7915 215.87 48.3284Z" fill="#019D97"/>
<path d="M63.6954 146.228C63.956 147.369 63.377 147.946 62.3492 148.235C62.2555 148.015 62.2183 147.774 62.241 147.536C62.2636 147.297 62.3454 147.068 62.479 146.869C62.6125 146.67 62.7936 146.507 63.006 146.395C63.2184 146.283 63.4553 146.226 63.6954 146.228Z" fill="#019D97"/>
<path d="M33.2954 238.033C33.3765 238.198 33.42 238.378 33.4227 238.562C33.4255 238.745 33.3874 238.927 33.3113 239.094C33.2352 239.261 33.1228 239.41 32.9824 239.528C32.842 239.647 32.677 239.733 32.4992 239.78C31.3411 238.567 32.2386 238.278 33.2954 238.033Z" fill="#019D97"/>
<path d="M202.146 221.743C202.04 221.653 201.957 221.54 201.904 221.411C201.851 221.283 201.83 221.144 201.842 221.006C202.566 221.006 202.667 221.252 202.146 221.743Z" fill="#FB9671"/>
<path d="M262.02 46.581C262.02 45.96 262.338 45.8444 262.831 45.83L262.02 46.581Z" fill="#F8F5F7"/>
<path d="M72.3812 367.372L73.5104 368.022C73.3939 368.069 73.2681 368.089 73.1426 368.081C73.0171 368.072 72.8953 368.035 72.7863 367.972C72.6774 367.91 72.5842 367.823 72.514 367.719C72.4438 367.615 72.3984 367.496 72.3812 367.372Z" fill="#EB8E74"/>
<path d="M206.257 449.183C208.4 450.006 209.529 448.735 210.774 447.84C213.814 445.631 216.796 443.334 219.923 441.255C223.05 439.175 225.96 437.356 229.984 439.031C232.141 439.926 234.008 437.847 236.079 437.384C238.149 436.922 240.74 435.651 242.535 437.904C244.33 440.157 242.535 442.323 241.276 444.157C237.628 449.703 232.387 453.646 226.93 457.155C225.988 457.686 225.278 458.55 224.941 459.575C224.604 460.601 224.662 461.716 225.106 462.701C225.757 464.91 227.581 466.166 230.056 464.289C231.996 462.845 233.791 461.112 236.426 460.809C237.642 460.664 238.699 460.448 239.538 461.588C239.699 461.791 239.814 462.026 239.876 462.277C239.939 462.527 239.947 462.788 239.9 463.042C239.854 463.297 239.754 463.538 239.606 463.75C239.459 463.963 239.268 464.142 239.046 464.275C232.763 468.78 237.338 471.755 240.407 475.091C243.042 477.98 245.43 481.056 248.05 483.944C248.735 484.685 249.265 485.555 249.61 486.501C249.955 487.448 250.109 488.454 250.063 489.461C250.15 490.255 250.003 491.058 249.641 491.771C249.278 492.484 248.716 493.076 248.021 493.476C246.574 494.255 245.618 492.956 244.62 492.234C241.117 489.933 237.735 487.456 234.486 484.811C228.247 479.308 220.618 476.651 213.076 473.748C212.164 473.402 210.745 472.94 210.181 473.358C206.171 476.391 200.814 475.828 196.732 479.236C189.494 485.229 182.256 491.208 173.57 495.208C170.993 496.407 172.441 498.198 172.991 499.541C173.651 500.896 173.98 502.387 173.952 503.892C173.925 505.398 173.541 506.876 172.832 508.206C171.804 510.083 171.095 510.805 169.604 508.61C168.315 506.704 166.708 504.971 165.406 503.108C163.668 500.711 162.134 498.429 158.471 500.335C158.09 500.572 157.65 500.7 157.201 500.706C156.752 500.712 156.309 500.596 155.921 500.371C155.533 500.145 155.213 499.818 154.997 499.425C154.781 499.032 154.676 498.588 154.693 498.14C154.983 494.963 152.855 494.79 150.958 494.068C148.063 492.956 145.023 491.887 141.65 490.659C145.921 486.327 150.582 486.024 155.967 487.338C154.664 485.691 153.289 484.103 152.102 482.384C151.349 481.301 149.308 480.348 150.481 478.832C151.057 477.911 151.842 477.137 152.772 476.573C153.702 476.009 154.752 475.67 155.837 475.582C156.422 475.588 156.997 475.732 157.516 476.001C165.666 480.233 172.224 477.445 178.376 471.669C181.435 469.012 184.697 466.598 188.133 464.448C190.088 463.105 190.261 462.209 188.278 460.621C184.654 457.757 180.631 455.437 176.335 453.732C167.519 450.107 158.746 446.353 149.988 442.612C148.845 442.121 147.093 441.977 146.934 440.533C146.775 439.089 148.628 438.338 149.829 437.644C153.68 435.478 157.791 436.388 161.598 437.543C172.378 440.807 183.095 444.278 193.75 447.956C194.649 448.35 195.643 448.475 196.612 448.316C197.581 448.157 198.483 447.721 199.208 447.06C200.554 446.02 201.697 444.62 203.55 444.432C204.998 444.302 206.533 442.858 207.893 444.779C209.254 446.699 206.764 447.508 206.257 449.183Z" fill="#F8F5F7"/>
<path d="M90.2304 214.912C89.1447 213.092 86.8574 214.493 85.5835 213.179L106.878 211.489C107.035 211.511 107.184 211.57 107.312 211.663C108.76 213.396 107.978 215.432 108.123 217.353L105.59 217.266C104.895 216.298 103.795 216.457 102.825 216.284L90.2304 214.912Z" fill="#EB8E74"/>
<path d="M69.9347 344.438C65.0852 342.316 62.0307 339.008 62.0886 333.333C62.0886 330.921 61.5964 328.509 61.4082 326.112C61.4082 325.26 61.4082 324.191 62.5663 324.206C63.7244 324.22 63.7244 325.274 63.7389 326.141C63.7389 327.715 63.7389 329.304 63.8113 330.878C64.0574 335.21 64.2021 339.543 69.1819 341.593C70.0216 341.926 69.8913 343.038 69.9492 343.933C69.9492 344.077 69.9347 344.251 69.9347 344.438Z" fill="#BD644B"/>
<path d="M312.455 55.2459C312.31 53.4696 313.7 52.7908 314.844 51.9532C331.998 39.3602 349.095 26.5649 366.379 14.0874C371.229 10.5781 376.324 7.22767 382.419 6.02902C382.593 7.81978 380.971 8.18082 379.943 8.61406C368.073 13.5675 358.779 22.3191 348.573 29.6988C337.528 37.6994 326.584 45.8156 315.582 53.8018C314.595 54.3946 313.547 54.8788 312.455 55.2459Z" fill="#019D97"/>
<path d="M253.334 113.128C256.447 108.795 261.441 106.932 265.552 103.928C273.196 98.3396 281.244 93.2995 288.989 87.855C296.112 82.8582 296.777 78.2513 291.711 71.2183C290.813 69.9619 289.945 68.7055 288.815 67.0736C291.219 66.6692 291.711 68.7199 292.927 69.2976C296.213 73.4856 297.834 77.9625 295.967 83.3492C294.432 87.7972 290.335 89.458 287.006 91.7831C277.09 98.7006 266.913 105.243 256.852 112.001C255.795 112.695 254.782 113.604 253.334 113.128Z" fill="#019D97"/>
<path d="M206.489 132.191C205.896 130.125 205.215 128.075 204.737 125.995C204.549 125.186 204.737 124.103 205.823 124.031C206.706 124.031 206.779 124.84 206.938 125.562C209.167 135.382 215.334 137.852 223.846 132.234C228.406 129.216 232.807 125.966 237.352 122.919C238.988 121.822 240.508 120.363 242.68 120.32C242.767 121.937 241.493 122.399 240.421 123.121C235.442 126.486 230.288 129.663 225.612 133.36C219.778 137.953 211.686 138.574 206.489 132.191Z" fill="#019D97"/>
<path d="M62.132 473.705C62.132 478.875 62.132 484.06 62.132 489.23C62.132 490.992 61.5819 491.872 59.6421 491.829C55.9362 491.728 52.2158 491.829 47.4386 491.829L61.1765 473.358L62.132 473.705Z" fill="#F8F5F7"/>
<path d="M171.543 195.719C169.69 193.64 168.098 193.683 166.346 196.008C161.685 202.218 156.893 208.312 152.16 214.464C147.527 214.031 142.736 214.233 138.813 211.027C138.761 210.751 138.683 210.48 138.581 210.218C137.582 207.893 135.527 206.825 133.355 205.886C133.051 205.323 132.718 205.366 132.371 205.886H130.923C129.475 203.243 129.997 201.655 132.863 200.109C138.581 197.091 140.984 191.82 141.158 185.538C141.317 179.588 141.636 179.285 147.209 181.408C156.213 184.83 165.203 188.339 174.222 191.762C175.045 191.995 175.888 192.15 176.74 192.224V193.871C174.786 193.885 173.715 196.167 171.543 195.719Z" fill="#019D97"/>
<path d="M106.893 211.475L85.5836 213.165L80.2708 213.829L77.8967 214.031L74.1908 214.695C72.2401 214.525 70.2907 215.035 68.6753 216.14C59.0776 217.959 52.4909 223.909 47.3952 231.794C45.76 234.338 44.2854 236.981 42.98 239.708C42.0535 241.629 40.4756 242.423 38.8832 241.614C37.2908 240.806 38.4055 239.087 38.9556 237.816C46.4977 220.486 59.8303 211.157 78.606 209.395L79.5614 209.28L87.3497 208.543C87.9432 209.352 88.5078 209.294 89.0144 208.457L102.897 207.475C104.345 208.096 106.241 207.099 107.443 208.673L107.298 209.583C106.675 210.088 106.835 210.796 106.893 211.475Z" fill="#484847"/>
<path d="M83.8175 195.69L78.6929 192.094C79.1995 184.527 74.35 178.851 71.6285 172.454C64.9694 156.871 70.8323 141.217 85.9165 132.913C90.8819 130.183 95.4129 127.569 101.189 129.678C96.1078 132.017 90.5344 133.057 85.5112 135.599C76.9992 139.931 72.7576 146.834 72.3668 156.265C72.1062 162.547 74.9725 167.962 77.086 173.595C79.4891 179.978 79.5759 179.934 85.931 178.173L88.1603 178.389L85.6559 182.649C85.1689 182.536 84.6634 182.527 84.1724 182.622C83.6814 182.716 83.2159 182.913 82.8062 183.199C82.3965 183.485 82.0518 183.854 81.7945 184.282C81.5373 184.71 81.3732 185.187 81.3131 185.682C80.9218 186.996 81.0619 188.41 81.7031 189.622C82.3444 190.834 83.436 191.748 84.7439 192.166C85.3954 195.055 88.1169 193.351 89.6369 194.318L85.96 195.676L83.8175 195.69Z" fill="#EB8E74"/>
<path d="M159.977 152.134C162.134 158.171 160.672 163.933 157.255 169.147C155.996 171.067 154.708 175.14 152.276 173.898C150.625 173.06 154.201 170.504 155.316 168.713C157.508 165.314 158.651 161.347 158.602 157.305C158.602 155.528 158.602 153.766 158.602 151.99L159.977 152.134Z" fill="#BD644B"/>
<path d="M84.715 192.152C83.407 191.733 82.3155 190.82 81.6742 189.608C81.0329 188.396 80.8929 186.982 81.2841 185.668C81.3443 185.173 81.5083 184.695 81.7656 184.268C82.0228 183.84 82.3675 183.471 82.7772 183.185C83.1869 182.899 83.6524 182.702 84.1434 182.607C84.6344 182.512 85.1399 182.522 85.627 182.635C86.1524 184.529 86.7757 186.394 87.4944 188.224C88.9276 191.3 87.8998 192.441 84.715 192.152Z" fill="#BD644B"/>
<path d="M85.9165 195.661L89.5935 194.304L89.8685 194.145C91.254 193.821 92.6957 193.821 94.0811 194.145V194.029C94.0413 194.43 94.1026 194.834 94.2593 195.205C94.4161 195.576 94.6634 195.901 94.9786 196.152L95.1379 197.394L95.8906 198.694C95.8627 198.776 95.8683 198.866 95.9062 198.945C95.9441 199.023 96.0113 199.083 96.0933 199.113L95.9051 200.716C94.201 200.818 92.495 200.549 90.9053 199.928C89.3156 199.307 87.8801 198.349 86.6982 197.12L85.9165 195.661Z" fill="#484847"/>
<path d="M130.952 205.857H132.4H133.384C135.556 206.781 137.611 207.85 138.61 210.19C136.279 210.666 133.775 209.699 131.56 211.099L131.357 210.811C129.91 210.493 128.564 210.305 128.462 208.269C128.361 206.233 129.837 206.363 130.952 205.857Z" fill="#484847"/>
<path d="M176.711 193.885V192.239C182.401 193.105 187.554 195.531 192.751 198.015C187.062 198.088 182.053 195.329 176.711 193.885Z" fill="#BD644B"/>
<path d="M120.327 169.652L122.107 172.252L124.858 177.133C126.218 179.53 124.858 180.599 122.787 181.278C121.745 181.624 120.804 181.09 121.441 180.036C124.119 175.703 120.298 174.172 117.996 171.992C117.996 171.515 117.996 171.038 117.895 170.547L120.327 169.652Z" fill="#BD644B"/>
<path d="M117.793 190.174C116.085 189.567 114.594 188.542 114.493 186.679C114.476 186.28 114.543 185.882 114.688 185.51C114.834 185.138 115.055 184.801 115.338 184.518C115.621 184.236 115.96 184.015 116.332 183.87C116.705 183.725 117.104 183.659 117.504 183.675C117.94 183.615 118.384 183.655 118.802 183.793C119.22 183.93 119.601 184.16 119.917 184.467C120.232 184.773 120.474 185.147 120.622 185.56C120.771 185.974 120.823 186.415 120.775 186.852C120.848 188.556 119.284 189.437 117.793 190.174Z" fill="#BD644B"/>
<path d="M126.059 204.63C122.39 206.349 118.532 207.638 114.565 208.471C113.928 208.63 112.973 208.615 112.958 207.619C113.011 207.358 113.126 207.113 113.295 206.907C113.465 206.7 113.682 206.538 113.928 206.435C117.851 205.366 121.789 204.384 125.726 203.373L126.059 204.63Z" fill="#BD644B"/>
<path d="M108.138 121.085C106.942 121.205 105.745 120.864 104.794 120.132C102.955 117.749 101.305 115.308 103.056 111.842C103.389 115.771 106.835 117.792 108.138 121.085Z" fill="#BD644B"/>
<path d="M103.013 180.974L109.904 180.844C109.817 183.213 107.92 183.906 106.183 184.108C104.446 184.31 103.259 182.866 103.013 180.974Z" fill="#BD644B"/>
<path d="M129.808 173.06C131.806 172.324 133.254 169.565 135.946 171.371C134.224 173.104 133.181 177.075 129.808 173.06Z" fill="#BD644B"/>
<path d="M95.8761 200.701L96.0643 199.098C98.67 199.373 99.8426 200.774 99.4517 203.431C99.1867 203.451 98.9206 203.451 98.6555 203.431C98.6164 202.712 98.3097 202.034 97.7956 201.529C97.2815 201.024 96.597 200.729 95.8761 200.701Z" fill="#EB8E74"/>
<path d="M94.2982 176.642C96.0643 175.053 97.454 175.501 98.6411 177.436C97.1356 177.248 95.5432 177.999 94.2982 176.642Z" fill="#EB8E74"/>
<path d="M94.0955 194.116C92.7101 193.792 91.2684 193.792 89.8829 194.116C91.2727 193.206 92.6479 190.217 94.0955 194.116Z" fill="#EB8E74"/>
<path d="M94.9496 196.123C94.6343 195.872 94.3871 195.547 94.2303 195.176C94.0735 194.805 94.0123 194.401 94.0521 194.001C95.1233 194.376 95.0944 195.228 94.9496 196.123Z" fill="#EB8E74"/>
<path d="M107.312 209.569L107.457 208.659C108.268 209.121 108.195 209.742 107.732 210.406L107.312 209.569Z" fill="#EB8E74"/>
<path d="M107.312 209.569L107.718 210.406L107.312 211.648C107.182 211.562 107.033 211.507 106.878 211.489C106.835 210.796 106.675 210.088 107.312 209.569Z" fill="#BD644B"/>
<path d="M38.7094 272.678C38.2802 272.356 37.9203 271.95 37.6513 271.486C37.3822 271.022 37.2095 270.508 37.1433 269.976C37.0771 269.444 37.1189 268.904 37.2661 268.388C37.4132 267.872 37.6629 267.391 38.0001 266.974C45.6435 255.204 52.1144 242.596 62.5373 232.877C66.1855 229.584 70.6147 227.273 75.4067 226.162C82.9343 224.198 86.1046 230.292 89.8829 234.74C92.6779 238.356 95.287 242.111 97.7001 245.99L97.8014 248.734C97.8168 248.888 97.8168 249.043 97.8014 249.196C95.9151 257.707 93.6008 266.118 90.8673 274.397C90.462 275.509 90.3462 276.736 88.9999 276.982C78.8665 278.845 69.0516 282.137 58.7735 283.293H57.0798L38.7094 272.678Z" fill="#019D97"/>
<path d="M57.0219 283.148H58.7156C58.7156 284.361 58.4984 285.445 57.0219 285.748C50.4931 287.12 43.9932 288.521 36.7551 290.08C38.2028 287.091 40.3308 287.192 42.1113 286.73C47.0333 285.459 52.3026 285.445 57.0219 283.148Z" fill="#BD644B"/>
<path d="M114.912 257.139C110.087 261.25 105.233 265.356 100.349 269.458C100.183 269.57 99.9916 269.639 99.7921 269.659C99.5926 269.679 99.3911 269.65 99.2057 269.573C98.9596 269.4 98.757 268.62 98.9017 268.49C103.592 263.869 108.181 259.103 114.912 257.139Z" fill="#BD644B"/>
<path d="M81.1972 318.747C80.0102 321.216 73.5827 325.549 71.252 325.145C68.9214 324.74 70.3835 322.574 69.8913 321.274C73.3656 319.094 77.5347 320.061 81.1972 318.747Z" fill="#019D97"/>
<path d="M97.7581 249.124C97.7734 248.97 97.7734 248.816 97.7581 248.662C101.507 249.138 103.751 247.579 104.49 243.824C104.663 242.943 104.692 241.484 106.14 241.874C107.587 242.264 106.545 243.521 106.429 244.344C105.575 250.467 102.231 252.287 97.7581 249.124Z" fill="#BD644B"/>
<path d="M185.296 126.472C185.296 126.674 185.296 127.396 184.876 127.728C181.385 131.104 177.426 133.964 173.121 136.22C172.514 136.476 171.832 136.498 171.209 136.282C170.586 136.066 170.066 135.627 169.748 135.05C169.288 134.477 169.048 133.759 169.072 133.026C169.096 132.292 169.382 131.591 169.879 131.05C173.173 127.851 176.901 125.129 180.953 122.962C183.009 121.865 185.296 123.728 185.296 126.472Z" fill="#484847"/>
<path d="M303.089 40.1978C302.439 40.2341 301.793 40.0744 301.236 39.7396C300.678 39.4048 300.234 38.9102 299.962 38.3204C299.603 37.7648 299.447 37.1033 299.518 36.4463C299.589 35.7892 299.884 35.1764 300.353 34.71C303.953 31.8987 307.659 29.2222 311.471 26.6805C312.053 26.3594 312.736 26.2687 313.382 26.4266C314.028 26.5845 314.592 26.9793 314.96 27.5325C315.326 27.9623 315.576 28.4789 315.685 29.0327C315.794 29.5865 315.759 30.159 315.582 30.6952C315.075 32.4282 304.913 40.0967 303.089 40.1978Z" fill="#484847"/>
<path d="M270.344 64.1997C269.693 64.2774 269.035 64.1326 268.478 63.7889C267.92 63.4453 267.496 62.9231 267.275 62.3079C266.948 61.7386 266.815 61.079 266.896 60.4281C266.977 59.7771 267.267 59.1699 267.724 58.6975C271.227 55.9824 274.802 53.3541 278.479 50.8846C279.049 50.5465 279.718 50.4136 280.374 50.5083C281.03 50.6029 281.634 50.9192 282.084 51.4045C282.553 51.8555 282.882 52.432 283.03 53.0646C283.179 53.6973 283.142 54.3594 282.924 54.9715C282.475 56.6034 272.081 64.1708 270.344 64.1997Z" fill="#484847"/>
<path d="M332.143 12.7877C334.372 12.7877 336.095 12.9321 336.79 14.6073C337.586 16.5569 335.501 16.9035 334.502 17.6978C331.607 19.9218 328.712 22.0303 325.817 24.1388C324.051 25.4385 322.183 25.5829 320.822 23.8355C319.462 22.0881 319.925 19.9652 321.836 18.6076C325.209 16.2537 328.234 13.1198 332.143 12.7877Z" fill="#484847"/>
<path d="M201.857 107.64C204.564 107.755 205.968 109.705 207.387 111.611C202.87 112.767 202.016 112.16 201.857 107.64Z" fill="#484847"/>
<path d="M95.8761 200.701C96.5853 200.728 97.2603 201.013 97.7727 201.502C98.2851 201.992 98.5992 202.653 98.6555 203.359C92.59 204.037 86.5389 204.918 80.401 204.225C82.4422 201.813 83.0502 198.145 86.6692 197.091C87.8498 198.323 89.2847 199.283 90.8745 199.907C92.4642 200.53 94.1709 200.801 95.8761 200.701Z" fill="#019D97"/>
<path d="M35.959 251.016C36.1762 249.037 35.959 246.12 38.9701 245.066C40.7651 244.445 43.0813 248.72 42.98 252.287C42.98 254.554 42.1548 256.229 39.5202 256.244C36.2775 256.258 35.8866 254.077 35.959 251.016Z" fill="#484847"/>
<path d="M90.2304 214.912L102.825 216.269C91.4174 216.269 80.6471 218.335 71.0638 226.465C72.8589 221.324 77.0715 218.999 90.2304 214.912Z" fill="#BD644B"/>
<path d="M86.6693 197.106C83.0502 198.145 82.4422 201.813 80.4011 204.24H78.5192C79.4456 200.875 82.862 199.012 83.8175 195.705H85.9165L86.6693 197.106Z" fill="#019D97"/>
<path d="M68.6898 216.139C70.3052 215.035 72.2546 214.525 74.2053 214.695C72.7142 216.544 70.7599 216.587 68.6898 216.139Z" fill="#EB8E74"/>
<path d="M74.2776 204.731C74.6395 203.633 75.1317 203.142 76.0292 204.312C75.9477 204.46 75.8359 204.59 75.701 204.693C75.5662 204.795 75.4114 204.869 75.2464 204.908C75.0814 204.948 74.91 204.952 74.7431 204.922C74.5763 204.891 74.4177 204.826 74.2776 204.731Z" fill="#019D97"/>
<path d="M89.0144 208.442C88.5077 209.294 87.9431 209.338 87.3496 208.529C87.8708 207.734 88.4209 207.691 89.0144 208.442Z" fill="#BD644B"/>
<path d="M77.8966 214.031L80.2707 213.829C79.6193 214.898 78.7652 214.898 77.8966 214.031Z" fill="#EB8E74"/>
<path d="M79.6194 209.28L78.6639 209.395C78.8666 208.933 79.1851 208.875 79.6194 209.28Z" fill="#BD644B"/>
<path d="M131.546 211.128C133.746 209.684 136.265 210.695 138.596 210.218C138.698 210.48 138.776 210.751 138.827 211.027L131.546 211.128Z" fill="#FB9671"/>
<path d="M85.9454 178.158C79.5904 179.92 79.5035 179.963 77.1005 173.58C74.9869 167.962 72.1206 162.547 72.3812 156.25C72.7721 146.82 77.0136 139.902 85.5256 135.584C90.5489 133.028 96.1222 132.003 101.203 129.663L108.89 128.537C109.595 128.394 110.313 128.326 111.033 128.335C112.915 128.479 115.506 128.537 116.215 130.039C119.111 136.133 128.65 134.198 129.939 142.112C130.503 145.592 132.356 148.856 133.471 152.221C133.884 153.138 134.075 154.138 134.027 155.142C133.979 156.146 133.694 157.124 133.196 157.998C132.067 158.157 131.748 155.629 130.88 156.756C129.302 158.85 126.334 158.287 124.973 160.409L122.947 160.944C121.296 160.641 118.879 162.85 118.068 160.106C117.258 157.362 120.225 157.218 121.89 156.438C124.554 155.283 127.347 154.445 130.373 153.376C129.041 152.351 127.927 151.456 126.783 150.618C121.745 146.95 121.76 146.979 117.576 151.311C116.128 152.755 114.536 154.936 112.726 154.561C110.598 154.113 112.307 151.21 111.279 149.65C111.163 149.477 110.801 149.463 110.367 149.318C108.742 153.019 106.058 156.159 102.651 158.344C101.319 159.124 99.8426 160.641 98.3082 159.788C96.7737 158.936 98.6845 157.146 98.2068 155.803C98.1344 155.586 97.8015 155.47 97.4106 155.167C94.4356 157.868 92.1523 161.24 90.7515 165.002C89.7237 167.89 88.9999 171.067 85.0769 167.37C84.3531 170.981 86.3363 173.652 86.6403 176.642L85.9454 178.158Z" fill="#484847"/>
<path d="M86.6547 176.656C86.3507 173.667 84.3675 170.995 85.0913 167.385C89.0144 171.067 89.7382 167.832 90.766 165.016C92.2018 161.272 94.5148 157.925 97.5119 155.254C97.9028 155.557 98.2357 155.687 98.3081 155.889C98.7858 157.247 96.8605 159.009 98.4095 159.875C99.9584 160.742 101.305 159.211 102.752 158.431C106.159 156.246 108.843 153.106 110.468 149.405C110.902 149.564 111.279 149.564 111.38 149.737C112.379 151.282 110.685 154.2 112.828 154.647C114.637 155.023 116.273 152.857 117.677 151.398C121.861 147.065 121.846 147.065 126.884 150.705C128.042 151.542 129.157 152.438 130.474 153.463C127.449 154.532 124.684 155.369 121.991 156.525C120.326 157.247 117.33 157.333 118.17 160.193C119.009 163.052 121.398 160.727 123.048 161.03C123.048 163.052 121.398 163.731 119.907 164.135C108.34 167.24 97.8304 172.815 86.6547 176.656ZM109.209 161.204C106.661 162.258 103.577 163.471 100.523 164.829C100.092 165.032 99.753 165.388 99.5718 165.827C99.3907 166.267 99.3807 166.758 99.5438 167.205C99.7069 167.651 100.031 168.021 100.454 168.241C100.876 168.462 101.365 168.517 101.826 168.396C104.953 167.327 108.046 166.172 111.105 164.93C111.348 164.849 111.572 164.718 111.762 164.546C111.951 164.374 112.103 164.165 112.206 163.931C112.31 163.697 112.363 163.444 112.363 163.188C112.363 162.932 112.309 162.679 112.205 162.446C111.843 161.363 110.888 161.074 109.209 161.218V161.204Z" fill="#EB8E74"/>
<path d="M112.104 170.649C113.971 167.572 114.666 169.392 114.999 171.428C115.665 174.995 113.552 177.061 108.239 178.649C104.62 179.761 102.115 178.288 100.06 175.616C99.2346 174.548 100.06 173.782 100.972 173.219C102.333 172.404 103.923 172.049 105.503 172.208C106.328 174.143 107.298 176.05 109.846 175.458C112.393 174.865 112.393 172.728 112.104 170.649Z" fill="#EB8E74"/>
<path d="M129.837 162.879C131.285 161.435 133.08 159.745 134.484 162.72C135.483 164.843 137.293 167.356 133.485 169.132C127.695 171.833 125.277 171.761 122.947 168.266C121.991 166.822 121.499 165.58 123.989 165.377C124.887 167.428 125.914 169.464 128.679 168.266C131.444 167.067 130.663 165.002 129.837 162.879Z" fill="#EB8E74"/>
<path d="M112.104 170.649C112.394 172.728 112.64 174.88 109.904 175.501C107.168 176.122 106.357 174.187 105.561 172.252C107.312 170.042 109.339 168.829 112.104 170.649Z" fill="#484847"/>
<path d="M129.837 162.879C130.663 164.944 131.459 167.096 128.694 168.28C125.929 169.464 124.901 167.428 124.004 165.392C124.575 164.402 125.451 163.622 126.502 163.169C127.554 162.717 128.723 162.615 129.837 162.879Z" fill="#484847"/>
<path d="M124.959 160.496C126.334 158.373 129.302 158.936 130.865 156.842C131.719 155.701 132.052 158.287 133.181 158.084C132.096 159.101 130.787 159.849 129.358 160.268C127.93 160.687 126.423 160.765 124.959 160.496Z" fill="#EB8E74"/>
<path d="M120.327 169.652L117.895 170.547C116.577 169.407 116.157 168.006 117.996 167.284C119.834 166.562 120.384 168.02 120.327 169.652Z" fill="#FB9671"/>
<path d="M133.37 205.886H132.385C132.733 205.438 133.066 205.337 133.37 205.886Z" fill="#FB9671"/>
<path d="M109.209 161.218C110.873 161.074 111.829 161.377 112.263 162.446C112.367 162.679 112.421 162.932 112.421 163.188C112.421 163.444 112.368 163.697 112.264 163.931C112.161 164.165 112.009 164.374 111.82 164.546C111.63 164.718 111.406 164.849 111.163 164.93C108.104 166.172 105.011 167.327 101.884 168.396C101.423 168.517 100.934 168.462 100.511 168.241C100.089 168.021 99.7648 167.651 99.6017 167.205C99.4386 166.758 99.4486 166.267 99.6297 165.827C99.8109 165.388 100.15 165.032 100.581 164.829C103.592 163.471 106.661 162.272 109.209 161.218Z" fill="#484847"/>
</g>
<defs>
<clipPath id="clip0_85_575">
<rect width="432" height="548" fill="white" transform="translate(0 0.36792)"/>
</clipPath>
</defs>
</svg>
