<svg width="18" height="21" viewBox="0 0 18 21" fill="none" xmlns="http://www.w3.org/2000/svg">
<g clip-path="url(#clip0_85_375)">
<path d="M7.49594 7.95719C7.49594 6.4272 7.53561 5.05539 7.46813 3.68876C7.45126 3.35028 7.15215 2.94306 6.86946 2.72039C6.31138 2.28117 5.65025 1.98364 5.08032 1.5576C4.80219 1.34999 4.63394 0.985622 4.27876 0.507324H13.39L13.6102 0.760596C13.2842 1.09013 13.0134 1.57125 12.6222 1.72567C10.7961 2.44641 10.1651 3.76549 10.4737 5.70928C10.5795 6.37542 10.4906 7.0745 10.4906 7.94777L17.8337 5.91501C18.2627 6.97093 17.8177 7.58246 17.0011 8.16385C15.1203 9.50177 13.3189 10.9583 11.4344 12.2901C10.6926 12.8141 10.4241 13.3922 10.471 14.305C10.5458 15.7597 10.4847 17.2237 10.4924 18.6808C10.4984 19.7301 10.0894 20.4932 9.01425 20.5069C7.93912 20.5205 7.49822 19.7762 7.49776 18.7212C7.49776 17.1333 7.5543 15.5422 7.46357 13.9604C7.43484 13.4571 7.13209 12.8197 6.75092 12.5151C4.84656 10.993 2.90118 9.52641 0.914755 8.11536C0.110459 7.54433 -0.20825 6.92197 0.13964 5.90747L7.49594 7.95719Z" fill="#019D97"/>
</g>
<defs>
<clipPath id="clip0_85_375">
<rect width="20" height="18" fill="white" transform="translate(0 20.507) rotate(-90)"/>
</clipPath>
</defs>
</svg>
