<svg width="11" height="10" viewBox="0 0 11 10" fill="none" xmlns="http://www.w3.org/2000/svg">
<g clip-path="url(#clip0_33_344)">
<path d="M4.22493 5.77649C3.45994 5.77649 2.77403 5.75601 2.09072 5.79085C1.92148 5.79956 1.71787 5.95397 1.60653 6.09991C1.38692 6.38802 1.23816 6.72932 1.02514 7.02355C0.921335 7.16713 0.739149 7.25399 0.5 7.43735V2.7337L0.626636 2.62001C0.791404 2.78831 1.03196 2.92813 1.10917 3.13008C1.46954 4.07279 2.12908 4.39856 3.10098 4.23921C3.43405 4.1846 3.78359 4.2305 4.22022 4.2305L3.20384 0.439659C3.7318 0.218164 4.03757 0.447898 4.32826 0.869468C4.99722 1.84042 5.7255 2.77042 6.39139 3.74326C6.65338 4.12622 6.94243 4.26486 7.39883 4.24062C8.12616 4.20202 8.85821 4.23356 9.58672 4.22956C10.1114 4.2265 10.4929 4.43764 10.4998 4.99267C10.5066 5.5477 10.1345 5.77532 9.60696 5.77555C8.81301 5.77555 8.01742 5.74636 7.22653 5.7932C6.97491 5.80803 6.6562 5.96433 6.50391 6.16111C5.74284 7.14422 5.00954 8.14852 4.30402 9.17401C4.0185 9.58922 3.70733 9.75375 3.20008 9.57416L4.22493 5.77649Z" fill="#484847"/>
</g>
<defs>
<clipPath id="clip0_33_344">
<rect width="10" height="9.29244" fill="white" transform="translate(0.5 0.353775)"/>
</clipPath>
</defs>
</svg>
