<svg width="10" height="11" viewBox="0 0 10 11" fill="none" xmlns="http://www.w3.org/2000/svg">
<g clip-path="url(#clip0_84_325)">
<path d="M4.79195 1.56336C7.40582 1.57669 9.52463 3.69425 9.51832 6.28518C9.51115 8.8971 7.34301 11.0047 4.693 10.9755C2.084 10.9469 -0.0204624 8.81428 -9.75758e-05 6.21994C0.0205541 3.63752 2.1689 1.54975 4.79195 1.56336ZM4.73717 9.93035C6.79316 9.93971 8.44386 8.33353 8.4602 6.30758C8.47655 4.27143 6.86142 2.63348 4.81375 2.60994C2.72764 2.58498 1.06117 4.20761 1.05801 6.26362C1.05572 8.29524 2.68605 9.92014 4.73688 9.9295L4.73717 9.93035Z" fill="#484847"/>
<path d="M3.20288 1.0026V0.038269H6.30321V1.0026H3.20288Z" fill="#484847"/>
<path d="M9.99986 2.23468L9.31147 3.03337L7.76489 1.7267L8.44496 0.940491L9.99986 2.23468Z" fill="#484847"/>
<path d="M4.27124 3.66528H5.23499V6.74405H4.27124V3.66528Z" fill="#484847"/>
</g>
<defs>
<clipPath id="clip0_84_325">
<rect width="10" height="10.9375" fill="white" transform="translate(0 0.038269)"/>
</clipPath>
</defs>
</svg>
