<svg width="5" height="6" viewBox="0 0 5 6" fill="none" xmlns="http://www.w3.org/2000/svg">
<g clip-path="url(#clip0_33_331)">
<path d="M2.39601 1.02816C3.70294 1.03482 4.76234 2.0936 4.75919 3.38906C4.7556 4.69502 3.67153 5.74884 2.34653 5.73423C1.04203 5.71991 -0.0102007 4.65361 -1.82703e-05 3.35645C0.0103076 2.06524 1.08448 1.02135 2.39601 1.02816ZM2.36861 5.21165C3.39661 5.21633 4.22196 4.41324 4.23013 3.40027C4.23831 2.38219 3.43074 1.56322 2.40691 1.55145C1.36385 1.53897 0.530615 2.35028 0.529038 3.37829C0.52789 4.3941 1.34306 5.20654 2.36847 5.21122L2.36861 5.21165Z" fill="#484847"/>
<path d="M1.6015 0.747791V0.265625H3.15167V0.747791H1.6015Z" fill="#484847"/>
<path d="M4.99999 1.36383L4.6558 1.76317L3.88251 1.10984L4.22254 0.716732L4.99999 1.36383Z" fill="#484847"/>
<path d="M2.13571 2.07914H2.61758V3.61852H2.13571V2.07914Z" fill="#484847"/>
</g>
<defs>
<clipPath id="clip0_33_331">
<rect width="5" height="5.46875" fill="white" transform="translate(0 0.265625)"/>
</clipPath>
</defs>
</svg>
