<svg width="72" height="117" viewBox="0 0 72 117" fill="none" xmlns="http://www.w3.org/2000/svg">
<path d="M71.7044 57.4405C71.7044 66.9463 64.0534 74.5973 54.5477 74.5973C52.6929 74.5973 50.8381 74.1336 48.9833 73.6699C45.7374 77.3794 41.1005 79.6979 35.9998 79.6979V0.406013C45.5056 0.406013 53.1566 8.05699 53.1566 17.5627C53.1566 18.2583 53.1566 18.9538 52.9247 19.6494C60.5757 21.5041 66.14 28.2277 66.14 36.3424C66.14 38.8927 65.4445 41.443 64.5171 43.7615C68.9222 46.7755 71.7044 51.8762 71.7044 57.4405Z" fill="#6C7A37"/>
<path d="M36 0.406006V79.9297C30.6675 79.9297 26.0306 77.6113 23.0165 73.9017C21.1618 74.3654 19.307 74.5972 17.4522 74.5972C7.94644 74.5972 0.295471 66.9463 0.295471 57.4405C0.295471 51.6443 3.07764 46.5437 7.48275 43.5297C6.32351 41.2112 5.85981 38.8927 5.85981 36.1105C5.85981 27.9959 11.4242 21.2723 19.0751 19.4175C19.0751 18.722 18.8433 18.0264 18.8433 17.3309C18.8433 8.05698 26.4943 0.406006 36 0.406006Z" fill="#90A349"/>
<path d="M49.2152 114.011C49.2152 115.402 48.2878 116.33 46.8967 116.33H35.9998V69.0329L45.2738 59.759C46.2011 58.8316 47.5922 58.8316 48.7515 59.759C49.6789 60.6864 49.6789 62.0775 48.7515 63.0049L38.3183 73.438V111.693H46.8967C48.2878 111.693 49.2152 112.62 49.2152 114.011Z" fill="#482B0E"/>
<path d="M35.9999 69.0329V116.33H25.1031C23.712 116.33 22.7846 115.171 22.7846 114.011C22.7846 112.62 23.712 111.693 25.1031 111.693H33.6814V73.438L23.4801 63.2367C22.5527 62.3093 22.5527 60.9182 23.4801 59.9909C24.4075 59.0635 25.7986 59.0635 26.9578 59.9909L35.9999 69.0329Z" fill="#603913"/>
</svg>
